<svg height="453pt" viewBox="0 0 453.09464 453" width="453pt" xmlns="http://www.w3.org/2000/svg"><path d="m9.679688 443.328125 7 .679687c58.367187 5.648438 116.117187-15.660156 156.828124-57.863281 40.710938-42.207031 59.921876-100.691406 52.171876-158.816406l-.9375-.117187c-59.085938-7.632813-118.367188 12.574218-160.496094 54.699218-42.128906 42.128906-62.332032 101.414063-54.703125 160.5zm0 0" fill="#38876a"/><path d="m227.425781 225.730469 7 .671875c58.363281 5.648437 116.113281-15.660156 156.824219-57.867188 40.707031-42.203125 59.921875-100.683594 52.175781-158.804687l-.945312-.121094c-59.085938-7.628906-118.367188 12.578125-160.496094 54.707031-42.125 42.125-62.332031 101.40625-54.703125 160.492188zm0 0" fill="#38876a"/><path d="m225.679688 227.328125v29.210937c0 37.847657 17.070312 73.679688 46.460937 97.527344 29.394531 23.851563 67.972656 33.171875 105.011719 25.375l.527344-.113281c7.785156-36.988281-1.5-75.515625-25.28125-104.898437-23.785157-29.378907-59.535157-46.484376-97.335938-46.570313-17.839844-.058594-29.703125-.210937-29.382812-.53125zm0 0" fill="#58af7a"/><path d="m225.679688 227.328125v-29.207031c0-37.851563-17.070313-73.683594-46.464844-97.535156-29.394532-23.847657-67.976563-33.167969-105.015625-25.367188l-.519531.109375c-7.769532 36.988281 1.519531 75.507813 25.300781 104.882813 23.777343 29.375 59.515625 46.484374 97.308593 46.589843 17.839844.058594 29.703126.207031 29.390626.527344zm0 0" fill="#58af7a"/><path d="m423.335938 40.984375-11.320313-11.320313-53 53.007813-5.449219-32.664063-15.773437 2.640626 7.320312 43.929687-33.777343 33.777344-5.734376-40.160157-15.839843 2.269532 7.429687 52.03125-26.597656 26.601562-5.074219-25.335937-15.679687 3.136719 7.152344 35.800781-31.320313 31.320312-31.992187-31.992187v-36.699219h-16v20.691406l-24-24v-36.691406h-16v20.691406l-34.34375-34.347656-11.3125 11.3125 34.34375 34.34375h-20.6875v16h36.6875l23.992187 24h-20.679687v16h36.679687l32 32-39.992187 40h-52.6875v16h36.6875l-24 24h-44.6875v16h28.6875l-24 24h-36.6875v16h20.6875l-34.34375 34.34375 11.3125 11.3125 37.433593-37.429687 5.070313 25.34375 15.679687-3.136719-7.160156-35.808594 25.984375-25.976563 5.449219 32.671876 15.773437-2.640626-7.316406-43.933593 25.773438-25.777344 5.738281 40.167969 15.839843-2.269532-7.441406-52.042968 39.519532-39.511719 24 24v36.6875h16v-20.6875l24 24v36.6875h16v-20.6875l34.34375 34.34375 11.3125-11.3125-34.34375-34.34375h20.6875v-16h-36.6875l-24-24h20.6875v-16h-36.6875l-24-24 32-32h44.6875v-16h-28.695313l24.40625-24.398437 61.28125-7.664063-1.984375-15.871094-40.871094 5.101563 29.167969-29.167969h44.695313v-16h-28.695313zm0 0" fill="#77c974"/><path d="m1.742188 444.355469c.460937 3.703125 3.421874 6.597656 7.136718 6.972656l7 .671875c6.585938.621094 13.132813.929688 19.640625.929688 89.414063-.1875 167.882813-59.59375 192.328125-145.601563 20.4375 50.078125 69.152344 82.804687 123.242188 82.785156 9.492187-.003906 18.964844-.996093 28.253906-2.960937 3.097656-.65625 5.515625-3.078125 6.167969-6.175782 13.53125-64.019531-21.410157-128.394531-82.464844-151.933593 98-25.453125 161.628906-120 148.304687-220.371094-.480468-3.585937-3.3125-6.40625-6.902343-6.871094l-.9375-.121093c-99.746094-12.816407-193.542969 50.277343-219.273438 147.496093-23.824219-60.890625-88.320312-95.492187-152.230469-81.671875-3.09375.660156-5.507812 3.082032-6.160156 6.175782-13.394531 63.25 20.5625 126.984374 80.527344 151.144531-95.78125 26.890625-157.386719 119.921875-144.75 218.601562zm344.472656-164.800781c21.136718 26.027343 30.097656 59.871093 24.609375 92.949218-31.660157 5.347656-64.132813-2.492187-89.863281-21.699218-25.734376-19.207032-42.488282-48.105469-46.367188-79.980469.664062-7.492188.90625-15.015625.726562-22.535157l14.398438 14.402344v36.636719h16v-20.6875l24 24v36.6875h16v-20.6875l34.34375 34.34375 11.3125-11.3125-34.382812-34.34375h20.6875v-16h-36.6875l-24-24h20.6875v-16h-36.6875l-15.503907-15.503906h9.550781c35.4375.050781 68.953126 16.121093 91.175782 43.722656zm-58.542969-209.601563c38.941406-39.234375 93.550781-58.726563 148.535156-53.023437 5.484375 53.78125-13.078125 107.238281-50.710937 146.046874-36.5 38.050782-87.636719 58.511719-140.3125 56.144532l23.808594-23.792969h44.6875v-16h-28.695313l24.40625-24.398437 61.28125-7.664063-1.984375-15.871094-40.871094 5.101563 29.167969-29.167969h44.695313v-16h-28.695313l50.351563-50.34375-11.320313-11.320313-53 53.007813-5.449219-32.664063-15.773437 2.640626 7.320312 43.929687-33.777343 33.777344-5.734376-40.160157-15.839843 2.269532 7.429687 52-26.597656 26.601562-5.074219-25.335937-15.679687 3.136719 7.152344 35.796874-23.128907 23.128907c-2.296875-51.46875 17.242188-101.519531 53.808594-137.816407zm-182.535156 105.160156c-21.136719-26.027343-30.097657-59.875-24.609375-92.953125 34.125-5.753906 69.054687 3.816406 95.480468 26.160156 26.425782 22.34375 41.671876 55.195313 41.671876 89.800782v9.898437l-24-24v-36.691406h-16v20.691406l-24-24v-36.691406h-16v20.691406l-34.34375-34.347656-11.3125 11.3125 34.34375 34.34375h-20.6875v16h36.6875l24 24h-20.6875v16h36.679687l22.402344 22.402344c-6.449219-.160157-12.867188 0-19.203125.464843-31.527344-2.898437-60.542969-18.4375-80.421875-43.082031zm-35.214844 112.457031c30.90625-31.101562 71.964844-50.054687 115.6875-53.394531 3.535156.289063 7.070313.609375 10.65625.625 4.140625 0 7.558594 0 10.574219.050781l-32.472656 32.476563h-52.6875v16h36.6875l-24 24h-44.6875v16h28.6875l-24 24h-36.6875v16h20.6875l-34.34375 34.34375 11.3125 11.3125 37.433593-37.429687 5.070313 25.375 15.679687-3.136719-7.160156-35.808594 25.984375-25.976563 5.449219 32.671876 15.773437-2.636719-7.316406-43.9375 25.773438-25.777344 5.738281 40.167969 15.839843-2.269532-7.441406-52 31.519532-31.585937v9.898437c.015624 4.773438.285156 9.546876.800781 14.292969-9.984375 101.082031-99.921875 175-201.023438 165.210938l-.578125-.058594c-5.640625-54.941406 13.855469-109.492187 53.042969-148.414063zm0 0"/></svg>