<?xml version="1.0" encoding="iso-8859-1"?>
<!-- Generator: Adobe Illustrator 19.0.0, SVG Export Plug-In . SVG Version: 6.00 Build 0)  -->
<svg version="1.1" id="Layer_1" xmlns="http://www.w3.org/2000/svg" xmlns:xlink="http://www.w3.org/1999/xlink" x="0px" y="0px"
	 viewBox="0 0 512.001 512.001" style="enable-background:new 0 0 512.001 512.001;" xml:space="preserve">
<g>
	<path style="fill:#56AC3A;" d="M273.83,275.551c6.741-6.741,14.013-12.803,21.657-18.244
		C288.895,124.532,155.431,12.006,155.431,12.006S15.098,130.32,15.098,267.446c0,84.434,62.831,152.883,140.334,152.883
		c31.336,0,60.269-11.181,83.625-30.094C229.966,351.614,241.804,307.578,273.83,275.551z"/>
</g>
<path d="M104.888,156.312c-0.78,0-1.573-0.084-2.353-0.24c-0.768-0.156-1.525-0.384-2.245-0.684s-1.417-0.672-2.077-1.104
	c-0.648-0.432-1.261-0.936-1.825-1.489c-0.552-0.552-1.044-1.164-1.489-1.825c-0.432-0.648-0.804-1.345-1.104-2.077
	c-0.3-0.72-0.528-1.477-0.684-2.245c-0.156-0.768-0.228-1.561-0.228-2.341s0.072-1.573,0.228-2.353
	c0.156-0.756,0.384-1.513,0.684-2.245c0.3-0.72,0.672-1.417,1.104-2.065c0.444-0.66,0.936-1.273,1.489-1.825
	c0.564-0.552,1.176-1.056,1.825-1.501c0.66-0.432,1.357-0.804,2.077-1.104s1.477-0.528,2.245-0.684c1.549-0.312,3.145-0.312,4.694,0
	c0.768,0.156,1.525,0.384,2.245,0.684s1.429,0.672,2.077,1.104c0.66,0.444,1.273,0.948,1.825,1.501
	c0.552,0.552,1.056,1.164,1.489,1.825c0.432,0.648,0.804,1.345,1.104,2.065c0.3,0.732,0.528,1.489,0.684,2.245
	c0.156,0.78,0.24,1.573,0.24,2.353s-0.084,1.573-0.24,2.341c-0.156,0.768-0.384,1.525-0.684,2.245
	c-0.3,0.732-0.672,1.429-1.104,2.077c-0.432,0.66-0.936,1.273-1.489,1.825c-0.552,0.552-1.164,1.056-1.825,1.489
	c-0.648,0.432-1.357,0.804-2.077,1.104s-1.477,0.528-2.245,0.684C106.461,156.228,105.668,156.312,104.888,156.312z"/>
<path d="M71.644,323.451c-4.731,0-9.216-2.816-11.117-7.467c-6.249-15.291-9.415-31.621-9.415-48.538
	c0-27.76,7.145-57.52,21.237-88.453c2.749-6.034,9.867-8.696,15.902-5.948c6.034,2.749,8.696,9.868,5.948,15.902
	c-12.658,27.786-19.076,54.197-19.076,78.5c0,13.788,2.568,27.063,7.632,39.456c2.508,6.137-0.435,13.145-6.573,15.654
	C74.695,323.164,73.157,323.451,71.644,323.451z"/>
<g>
	<path style="fill:#91DC5A;" d="M496.159,210.889c0,0-145.298-12.37-222.329,64.662c-47.431,47.431-50.587,121.179-7.049,164.717
		c43.537,43.537,117.282,40.384,164.715-7.05C508.528,356.186,496.159,210.889,496.159,210.889z"/>
</g>
<path d="M384.818,280.994c-0.78,0-1.573-0.084-2.341-0.24c-0.768-0.156-1.525-0.384-2.245-0.684c-0.732-0.3-1.429-0.672-2.077-1.104
	c-0.66-0.432-1.272-0.936-1.825-1.489c-0.552-0.552-1.056-1.164-1.489-1.825c-0.432-0.648-0.804-1.345-1.104-2.077
	c-0.3-0.72-0.528-1.477-0.684-2.245c-0.156-0.768-0.24-1.561-0.24-2.341c0-0.792,0.084-1.573,0.24-2.353
	c0.156-0.756,0.384-1.513,0.684-2.245c0.3-0.72,0.672-1.417,1.104-2.065c0.432-0.66,0.936-1.272,1.489-1.825
	s1.164-1.056,1.825-1.501c0.648-0.432,1.345-0.804,2.077-1.104c0.72-0.3,1.477-0.528,2.245-0.684c1.549-0.312,3.133-0.312,4.682,0
	c0.768,0.156,1.525,0.384,2.245,0.684c0.732,0.3,1.429,0.672,2.077,1.104c0.66,0.444,1.273,0.948,1.825,1.501
	s1.056,1.164,1.489,1.825c0.432,0.648,0.804,1.345,1.104,2.065c0.3,0.732,0.54,1.489,0.684,2.245c0.156,0.78,0.24,1.561,0.24,2.353
	c0,0.78-0.084,1.573-0.24,2.341c-0.144,0.768-0.384,1.525-0.684,2.245c-0.3,0.732-0.672,1.429-1.104,2.077
	c-0.432,0.66-0.936,1.273-1.489,1.825c-0.552,0.552-1.164,1.056-1.825,1.489c-0.648,0.432-1.345,0.804-2.077,1.104
	c-0.72,0.3-1.477,0.528-2.245,0.684C386.391,280.91,385.598,280.994,384.818,280.994z"/>
<path d="M284.109,374.007c-0.142,0-0.281-0.002-0.424-0.007c-6.627-0.229-11.812-5.788-11.581-12.413
	c0.762-21.973,10.674-44.049,27.192-60.569c11.107-11.106,24.935-20.719,41.104-28.572c5.965-2.897,13.148-0.409,16.043,5.553
	c2.897,5.964,0.411,13.147-5.553,16.043c-13.758,6.682-25.404,14.741-34.615,23.953c-12.268,12.268-19.622,28.46-20.175,44.423
	C295.875,368.902,290.547,374.007,284.109,374.007z"/>
<path d="M508.12,209.871c-0.496-5.826-5.118-10.448-10.944-10.944c-1.539-0.131-38.22-3.132-84.986,3.521
	c-41.215,5.862-77.273,17.521-106.618,34.29c-8.936-63.736-43.841-120.953-73.049-159.163
	c-34.588-45.25-67.951-73.565-69.355-74.748c-4.469-3.768-11.005-3.77-15.477,0c-1.475,1.244-36.534,31.001-72.028,78.267
	C28.188,144.319,3.093,208.757,3.093,267.447c0,86.547,61.924,157.729,140.332,164.377v68.172c0,6.63,5.375,12.005,12.005,12.005
	c6.63,0,12.005-5.375,12.005-12.005v-68.167c23.172-1.935,45.302-9.495,65.197-22.208c4.258,10.771,10.126,20.954,17.617,30.199
	l-50.974,50.974c-4.688,4.688-4.688,12.289,0,16.979c2.345,2.345,5.417,3.516,8.489,3.516s6.145-1.172,8.489-3.516l50.97-50.97
	c21.539,17.455,48.18,26.096,75.434,26.096c34.501,0,69.984-13.85,97.327-41.192c33.35-33.35,55.693-84.129,64.615-146.849
	C511.252,248.093,508.252,211.41,508.12,209.871z M27.102,267.447c0-67.352,36.674-130.44,67.44-171.505
	c17.828-23.797,35.802-43.167,48.884-56.226v367.988C78.273,401.036,27.102,340.683,27.102,267.447z M167.435,407.697V39.754
	c35.7,35.729,108.012,118.785,115.644,211.799c-2.394,1.836-4.712,3.734-6.987,5.66c-0.431,0.364-0.864,0.725-1.29,1.092
	c-0.676,0.583-1.343,1.17-2.007,1.761c-0.779,0.69-1.549,1.388-2.311,2.089c-0.474,0.437-0.951,0.87-1.419,1.311
	c-1.262,1.186-2.507,2.383-3.723,3.598c-0.928,0.928-1.837,1.869-2.735,2.816c-0.217,0.229-0.43,0.462-0.646,0.693
	c-0.719,0.77-1.43,1.544-2.128,2.324c-0.168,0.187-0.335,0.376-0.502,0.564c-15.896,17.938-26.448,38.813-31.566,60.368
	c-0.02,0.083-0.041,0.166-0.06,0.25c-0.264,1.124-0.517,2.25-0.753,3.377c-0.191,0.905-0.364,1.812-0.535,2.719
	c-0.047,0.25-0.098,0.498-0.144,0.748c-2.693,14.681-2.921,29.686-0.46,44.338C208.242,397.961,188.347,405.582,167.435,407.697z
	 M249.978,344.657c0.041-0.217,0.08-0.435,0.124-0.652c0.293-1.519,0.616-3.034,0.975-4.546c0.068-0.288,0.149-0.575,0.22-0.863
	c0.268-1.091,0.557-2.179,0.86-3.265c0.187-0.669,0.378-1.336,0.577-2.002c0.2-0.673,0.417-1.345,0.631-2.016
	c0.478-1.491,0.982-2.975,1.522-4.449c0.114-0.313,0.226-0.628,0.342-0.941c0.373-0.992,0.759-1.98,1.161-2.963
	c0.056-0.14,0.118-0.28,0.175-0.419c1.306-3.163,2.754-6.282,4.347-9.345c0.011-0.02,0.022-0.041,0.032-0.061
	c1.084-2.079,2.234-4.133,3.449-6.157c0.011-0.017,0.02-0.035,0.031-0.052c0.563-0.938,1.144-1.866,1.735-2.79
	c0.19-0.297,0.384-0.589,0.577-0.885c0.891-1.366,1.816-2.716,2.768-4.05c0.391-0.549,0.779-1.097,1.181-1.641
	c0.467-0.633,0.944-1.259,1.425-1.884c0.628-0.814,1.269-1.622,1.921-2.424c0.389-0.479,0.777-0.959,1.174-1.433
	c0.898-1.07,1.819-2.126,2.76-3.172c0.319-0.354,0.641-0.707,0.965-1.058c1.092-1.184,2.202-2.359,3.352-3.51
	c0.013-0.013,0.025-0.026,0.038-0.04c0.068-0.068,0.139-0.136,0.208-0.203c0.74-0.737,1.486-1.466,2.24-2.185
	c0.336-0.321,0.681-0.637,1.022-0.957c0.496-0.465,0.992-0.929,1.492-1.387c0.394-0.359,0.795-0.714,1.193-1.071
	c0.463-0.414,0.927-0.827,1.395-1.234c0.403-0.352,0.81-0.7,1.219-1.048c0.493-0.42,0.987-0.839,1.485-1.253
	c0.37-0.307,0.742-0.613,1.115-0.92c0.583-0.477,1.169-0.95,1.759-1.417c0.285-0.226,0.569-0.451,0.855-0.676
	c0.747-0.585,1.497-1.162,2.253-1.734c0.134-0.102,0.268-0.204,0.402-0.305c53.077-39.824,128.768-46.764,168.85-47.388
	L267.365,422.706C250.504,400.671,244.806,372.307,249.978,344.657z M423.007,424.729c-39.513,39.513-99.241,45.124-138.665,14.956
	l200.441-200.441C484.09,283.742,475.615,372.122,423.007,424.729z"/>
<g>
</g>
<g>
</g>
<g>
</g>
<g>
</g>
<g>
</g>
<g>
</g>
<g>
</g>
<g>
</g>
<g>
</g>
<g>
</g>
<g>
</g>
<g>
</g>
<g>
</g>
<g>
</g>
<g>
</g>
</svg>
