<svg height="463pt" viewBox="0 -30 463.86112 463" width="463pt" xmlns="http://www.w3.org/2000/svg"><path d="m15.648438 326.019531 59.472656 28c45.378906 21.351563 94.515625 33.570313 144.609375 35.957031l68 3.242188c15.71875.75 31.304687-3.171875 44.800781-11.265625 11.988281-7.195313 19.320312-20.152344 19.320312-34.136719v-8.992187c-.003906-10.550781-4.195312-20.671875-11.65625-28.132813-7.871093-7.867187-18.675781-12.082031-29.792968-11.617187l-102.296875 10.398437c-32.09375 3.257813-64.429688 3.425782-96.558594.503906l-39.695313-3.628906-48.738281-6.097656c-7.453125-.917969-14.242187 4.378906-15.160156 11.835938-.066406.542968-.101563 1.09375-.101563 1.644531.003907 5.257812 3.042969 10.042969 7.796876 12.289062zm0 0" fill="#e76e54"/><path d="m461.777344 276.96875c-2.726563-3.003906-7.273438-3.488281-10.574219-1.125l-27.199219 19.445312c-17.339844 12.441407-38.15625 19.105469-59.496094 19.058594h-1.601562l4.496094-13.472656c.957031-2.875.207031-6.042969-1.9375-8.183594l-21.613282-21.65625-11.3125 11.3125 18.160157 18.167969-7.597657 26.832031 5.5625 19.1875 10.3125 25.132813-9.246093 27.742187 15.199219 5.054688 10.535156-31.589844c.820312-2.433594.421875-5.113281-1.070313-7.199219l-8-11.304687c27.554688-4.222656 52.742188-18.007813 71.152344-38.9375l24.367187-27.863282c2.636719-3.0625 2.582032-7.609374-.136718-10.601562zm0 0" fill="#389a6b"/><path d="m26.929688 203.730469 65.511718 5.351562c49.976563 4.070313 100.261719-1.722656 148-17.054687l64.847656-20.800782c14.972657-4.8125 28.1875-13.949218 37.976563-26.257812 8.703125-10.9375 11.027344-25.636719 6.128906-38.726562l-3.199219-8.417969c-3.703124-9.886719-11.1875-17.894531-20.800781-22.261719-10.136719-4.613281-21.742187-4.769531-32-.433594l-92.160156 45.601563c-28.914063 14.308593-59.136719 25.804687-90.25 34.335937l-38.398437 10.542969-47.695313 11.375c-7.308594 1.738281-11.824219 9.070313-10.085937 16.378906.128906.542969.289062 1.078125.484374 1.597657 1.855469 4.929687 6.390626 8.347656 11.640626 8.769531zm0 0" fill="#d95354"/><path d="m427.515625 1.320312c-3.609375-1.859374-8.039063-.726562-10.304687 2.640626l-18.679688 27.777343c-11.878906 17.714844-29.015625 31.25-49 38.695313l-1.457031.542968-.519531-14.175781c-.109376-3.027343-1.921876-5.734375-4.679688-6.992187l-27.871094-12.6875-6.632812 14.5625 23.375 10.636718 11.769531 26.027344 5.53125 17.703125 15.417969 20.007813 1.074218 29.214844 16-.582032-1.214843-33.28125c-.097657-2.550781-1.402344-4.898437-3.515625-6.328125l-11.484375-7.769531c24.304687-13.625 43.042969-35.375 52.925781-61.429688l13.054688-34.632812c1.4375-3.792969-.195313-8.058594-3.789063-9.929688zm0 0" fill="#77c974"/><path d="m48.097656 101.738281c15.742188-2.25 31.738282-2.0625 47.425782.550781l23.246093 3.875c23.210938 3.890626 45.695313 11.292969 66.679688 21.949219 5.328125-2.398437 10.664062-4.800781 15.914062-7.398437l74.550781-36.898438c-68.382812-27.253906-142.984374-35.007812-215.511718-22.398437l-18.191406 3.160156c-6.429688 1.113281-11.828126 5.472656-14.265626 11.527344-3.859374 9.660156.839844 20.617187 10.496094 24.476562 3.0625 1.222657 6.394532 1.625 9.65625 1.15625zm0 0" fill="#389a6b"/><path d="m357.640625 127.144531-5.902344-3.636719c-.628906 7.832032-3.566406 15.300782-8.441406 21.460938-9.789063 12.308594-23 21.445312-37.972656 26.257812l-35.203125 11.3125 32.082031 21.40625c6.296875 4.183594 13.6875 6.410157 21.246094 6.402344h6.714843c13.46875.007813 25.953126-7.050781 32.886719-18.601562l7.382813-12.304688c10.789062-17.988281 5.105468-41.3125-12.75-52.320312zm0 0" fill="#389a6b"/><path d="m439.851562 266.347656c-2.375 0-4.625-1.050781-6.144531-2.875l-24.960937-29.925781c-9.027344-10.832031-20.609375-19.25-33.695313-24.496094l-7.199219-2.886719v12.183594c0 2.671875-1.335937 5.171875-3.5625 6.65625l-30.65625 20.4375-8.878906-13.3125 27.097656-18.0625 4.414063-17.386718c0-2.65625.222656-6.261719 2.417969-7.75 3.6875-4.042969 3.738281-9.570313 6.769531-14.128907l5.941406-14.855469 7.433594 2.96875c27.5625 11.007813 48.871094 33.605469 58.238281 61.769532l10.402344 31.132812c1.394531 4.195313-.871094 8.722656-5.0625 10.121094-.824219.273438-1.6875.410156-2.554688.410156zm0 0" fill="#77c974"/><path d="m451.203125 275.84375-27.199219 19.445312c-17.339844 12.441407-38.15625 19.105469-59.496094 19.058594h-1.601562l4.496094-13.472656c.957031-2.875.207031-6.042969-1.9375-8.183594l-21.613282-21.65625-11.3125 11.3125 18.160157 18.167969-2.402344 7.199219c-.796875-.914063-1.597656-1.824219-2.398437-2.6875-9.585938-9.542969-22.75-14.597656-36.257813-13.921875l-102.292969 10.402343c-31.589844 3.203126-63.414062 3.371094-95.035156.496094l-39.421875-3.578125-48.746094-6.09375c-11.84375-1.40625-22.585937 7.054688-23.992187 18.902344-1.089844 9.183594 3.785156 18.042969 12.128906 22.03125l59.480469 28c46.296875 21.835937 96.453125 34.300781 147.585937 36.679687l68 3.199219c1.414063.066407 2.816406.105469 4.222656.105469 15.878907.023438 31.464844-4.28125 45.078126-12.449219 8.441406-5.113281 15.09375-12.710937 19.050781-21.75l3.277343 4.617188-9.246093 27.742187 15.199219 5.054688 10.535156-31.589844c.820312-2.433594.421875-5.113281-1.070313-7.199219l-8-11.304687c27.554688-4.222656 52.742188-18.007813 71.152344-38.9375l24.367187-27.863282c2.890626-3.34375 2.519532-8.394531-.824218-11.285156-2.777344-2.402344-6.835938-2.601562-9.839844-.484375zm-122.785156 99.238281c-12.128907 7.289063-26.148438 10.808594-40.28125 10.121094l-68-3.242187c-49.058594-2.28125-97.179688-14.246094-141.597657-35.199219l-59.488281-27.976563c-1.953125-.925781-3.199219-2.894531-3.199219-5.054687.007813-3.09375 2.523438-5.59375 5.613282-5.585938.21875.003907.441406.015625.65625.042969l49.007812 6.160156 39.699219 3.605469c32.636719 2.96875 65.480469 2.796875 98.085937-.511719l101.824219-10.375c8.875-.332031 17.492188 3.027344 23.800781 9.28125 5.984376 5.949219 9.335938 14.046875 9.3125 22.488282v1.222656l-.128906 3.703125-.023437 6.382812c-.765625 10.292969-6.457031 19.582031-15.28125 24.9375zm31.433593-35.894531v-.351562c-.015624-2.847657-.285156-5.691407-.800781-8.488282h5.441407c13.285156.015625 26.476562-2.210937 39.023437-6.585937-13.191406 8.398437-28.125 13.671875-43.664063 15.425781zm0 0"/><path d="m324.753906 232.128906 8.878906 13.3125 30.65625-20.4375c2.226563-1.484375 3.5625-3.984375 3.5625-6.65625v-12.183594l7.199219 2.886719c13.085938 5.246094 24.667969 13.664063 33.695313 24.496094l24.960937 29.953125c2.824219 3.394531 7.871094 3.855469 11.265625 1.03125 2.535156-2.109375 3.515625-5.558594 2.46875-8.6875l-10.398437-31.136719c-8.84375-26.433593-28.25-48.015625-53.601563-59.601562.238282-1.78125.375-3.570313.410156-5.367188-.019531-5.269531-.933593-10.496093-2.707031-15.457031l-.796875-22.871094c-.097656-2.550781-1.402344-4.898437-3.511718-6.328125l-11.488282-7.769531c24.296875-13.628906 43.027344-35.378906 52.902344-61.429688l13.054688-34.632812c1.53125-4.144531-.589844-8.746094-4.734376-10.273438-3.433593-1.265624-7.285156-.042968-9.359374 2.96875l-18.679688 27.792969c-11.878906 17.714844-29.015625 31.25-49 38.695313l-1.457031.542968-.519531-14.175781c-.109376-3.027343-1.921876-5.734375-4.679688-6.992187l-27.871094-12.6875-6.632812 14.5625 23.375 10.636718.289062 7.808594c-1.097656-.597656-2.089844-1.34375-3.199218-1.871094-12.324219-5.5625-26.421876-5.675781-38.832032-.320312l-14.488281 7.199219c-68.84375-26.765625-143.691406-34.230469-216.464844-21.589844l-18.175781 3.160156c-14.582031 2.636719-24.269531 16.59375-21.632812 31.175781 2.554687 14.132813 15.785156 23.75 30.015624 21.816407 14.929688-2.140625 30.101563-1.964844 44.976563.519531l23.246094 3.878906c16.558593 2.769532 32.746093 7.402344 48.257812 13.816406-18.496093 7.621094-37.4375 14.117188-56.71875 19.457032l-38.210937 10.445312-47.757813 11.386719c-11.589843 2.816406-18.703125 14.5-15.882812 26.09375 2.1875 8.992187 9.863281 15.59375 19.082031 16.410156l65.511719 5.351563c10.726562.859375 21.421875 1.289062 32.089843 1.289062 40.425782 0 80.609376-6.316406 119.085938-18.722656l25.953125-8.335938 28.886719 19.257813c7.597656 5.085937 16.53125 7.800781 25.671875 7.800781h6.714843c7.570313-.03125 15.015626-1.921875 21.6875-5.503906v1.222656zm92.953125-12.648437c-10.203125-11.046875-22.738281-19.6875-36.695312-25.292969l-8.175781-3.265625 4.414062-7.359375c.59375-.992188 1.054688-2.046875 1.601562-3.082031 16.9375 8.308593 30.613282 22.035156 38.855469 39zm-28.328125-153.933594c-9.441406 12.445313-21.601562 22.570313-35.550781 29.597656l-.066406-.167969c-1.023438-2.65625-2.28125-5.214843-3.75-7.65625l5.132812-1.917968c12.449219-4.640625 24.023438-11.355469 34.234375-19.855469zm-269.296875 32.71875-23.238281-3.871094c-16.5-2.753906-33.324219-2.953125-49.882812-.585937-3.828126.605468-7.679688-.929688-10.046876-4-3.699218-4.695313-2.894531-11.5 1.800782-15.199219 1.414062-1.117187 3.085937-1.859375 4.863281-2.167969l18.183594-3.199218c64.945312-11.289063 131.6875-5.921876 193.992187 15.601562l-57.945312 28.703125c-4 2-8.160156 3.816406-12.246094 5.703125-20.707031-10.105469-42.757812-17.167969-65.480469-20.976562zm117.945313 86.144531c-46.734375 15.082032-95.992188 20.757813-144.929688 16.695313l-65.511718-5.351563c-2.160157-.167968-4.03125-1.566406-4.800782-3.589844-1.074218-2.902343.402344-6.125 3.300782-7.203124.207031-.074219.414062-.140626.628906-.191407l48.039062-11.464843 38.398438-10.535157c25.90625-7.152343 51.207031-16.328125 75.675781-27.4375l.574219-.257812c5.175781-2.335938 10.34375-4.671875 15.433594-7.199219l74.558593-36.890625.0625-.046875 17.191407-8.457031c16.167968-6.835938 34.820312.726562 41.65625 16.894531.171874.40625.335937.8125.488281 1.226562l.433593 1.160157 1.183594 3.527343 2.214844 5.976563c1.5 5.1875 1.660156 10.671875.464844 15.9375 0 .175781-.070313.351563-.121094.527344-.296875 1.230469-.671875 2.445312-1.117188 3.632812-.105468.277344-.191406.566407-.3125.847657-.445312 1.078124-.945312 2.128906-1.503906 3.152343-.167968.304688-.304687.621094-.480468.925781-.746094 1.28125-1.582032 2.511719-2.503907 3.671876-2.207031 2.761718-4.613281 5.359374-7.199219 7.769531-7.71875 7.214843-16.941406 12.625-27 15.847656l-35.203124 11.3125zm92.136718 17.9375h-6.714843c-5.980469.003906-11.828125-1.769531-16.800781-5.097656l-18.300782-12.191406 7.421875-2.402344 12-3.855469c16.484375-5.277343 31.03125-15.332031 41.792969-28.886719 1.464844-1.867187 2.785156-3.84375 3.953125-5.910156.335937-.585937.605469-1.195312.917969-1.785156.8125-1.558594 1.53125-3.160156 2.160156-4.800781.128906-.328125.320312-.625.433594-.960938 3.5625 3 6.382812 6.789063 8.230468 11.066407l2.097657 7.628906c1.347656 6.949218-.023438 14.152344-3.824219 20.121094l-7.121094 11.855468c-.363281.152344-2.226562 3.300782-4.382812 5.753906-5.703125 5.992188-13.59375 9.40625-21.863282 9.464844zm0 0"/></svg>