<svg height="440pt" viewBox="-40 0 440 440.01506" width="440pt" xmlns="http://www.w3.org/2000/svg"><path d="m136.007812 8v70.070312c0 31.96875-12.699218 62.628907-35.304687 85.230469l-59.199219 59.203125c-21.445312 21.433594-33.496094 50.515625-33.496094 80.839844v4.796875c0 41.832031 22.847657 80.320313 59.566407 100.355469l8.683593 4.726562c13.050782 7.121094 27.371094 11.625 42.148438 13.261719l35.761719 4c9.21875 1.027344 18.53125.925781 27.726562-.300781l60.664063-8.089844c29.195312-3.886719 55.757812-18.894531 74.152344-41.894531l10.289062-12.855469c16.207031-20.285156 25.027344-45.480469 25.007812-71.441406 0-35.273438-16.285156-68.566406-44.128906-90.222656l-60.917968-47.386719c-24.960938-19.410157-41.292969-47.855469-45.472657-79.199219l-9.480469-71.09375-24 32zm0 0" fill="#e3e7e8"/><path d="m284.582031 312.246094c2.367188-32.667969-7.703125-65.019532-28.191406-90.574219l-66.132813-82.671875-12.496093 10 66.132812 82.671875c20.746094 25.910156 29.179688 59.570313 23.109375 92.203125-6.074218 32.632812-26.050781 61.003906-54.722656 77.722656l-4.519531 2.640625 1.09375-1.40625c41.527343-53.414062 41.527343-128.191406 0-181.601562l-26.527344-34.144531-12.640625 9.824218 26.535156 34.113282c37.046875 47.628906 37.046875 114.320312 0 161.949218l-21.964844 28.242188-19.554687-13.039063c-28.699219-19.136719-48.53125-48.980469-55.050781-82.855469-6.523438-33.871093.808594-68.945312 20.355468-97.371093l31.945313-46.453125c15.699219-22.792969 24.089844-49.824219 24.054687-77.496094h-16c.03125 24.4375-7.382812 48.308594-21.253906 68.429688l-31.945312 46.457031c-21.972656 31.957031-30.210938 71.386719-22.875 109.46875 7.332031 38.078125 29.628906 71.628906 61.898437 93.140625l13.855469 9.238281c7.390625.527344 14.816406.332031 22.167969-.585937l17.105469-2.277344 21.382812-12.472656c37.140625-21.65625 61.1875-60.265626 64.238281-103.152344zm0 0" fill="#b3bfc7"/><path d="m312.808594 199.367188-60.9375-47.367188c-23.355469-18.082031-38.617188-44.664062-42.457032-73.953125l-9.476562-71.105469c-.429688-3.21875-2.765625-5.859375-5.910156-6.679687-3.140625-.824219-6.46875.339843-8.417969 2.9375l-18.464844 24.625-25.480469-25.480469c-2.289062-2.2890625-5.726562-2.972656-8.71875-1.734375-2.988281 1.238281-4.9375 4.152344-4.9375 7.390625v70.078125c.082032 29.859375-11.785156 58.511719-32.960937 79.566406l-59.199219 59.203125c-23.023437 22.886719-35.9296872 54.03125-35.8398435 86.496094v4.796875c-.01171875 44.757813 24.4374995 85.941406 63.7343755 107.363281l8.683593 4.734375c13.949219 7.628907 29.257813 12.449219 45.0625 14.191407l35.75 4c4.484375.492187 8.996094.742187 13.503907.746093 1.832031 0 3.671874-.105469 5.503906-.183593 2.417968 1.386718 5.398437 1.363281 7.792968-.066407l1.121094-.648437c.582032-.070313 1.167969-.101563 1.75-.175782l60.671875-8.09375c31.25-4.101562 59.691407-20.160156 79.339844-44.800781l10.285156-12.855469c17.328125-21.714843 26.777344-48.667968 26.800781-76.449218.125-37.765625-17.316406-73.441406-47.199218-96.535156zm7.917968 162.941406-10.320312 12.890625c-17.070312 21.429687-41.792969 35.398437-68.957031 38.96875l-24.578125 3.269531 3.457031-2.007812c32.683594-19.066407 55.453125-51.410157 62.375-88.609376 6.921875-37.203124-2.6875-75.570312-26.328125-105.117187l-66.117188-82.703125-12.496093 10 66.132812 82.671875c20.746094 25.910156 29.179688 59.570313 23.109375 92.203125-6.074218 32.632812-26.050781 61.003906-54.722656 77.722656l-4.519531 2.640625 1.09375-1.40625c41.527343-53.414062 41.527343-128.191406 0-181.601562l-26.527344-34.144531-12.640625 9.824218 26.535156 34.113282c37.046875 47.628906 37.046875 114.320312 0 161.949218l-21.964844 28.242188-19.554687-13.039063c-28.699219-19.136719-48.53125-48.980469-55.050781-82.855469-6.523438-33.871093.808594-68.945312 20.355468-97.371093l31.945313-46.453125c15.699219-22.792969 24.089844-49.824219 24.054687-77.496094h-16c.03125 24.4375-7.382812 48.308594-21.253906 68.429688l-31.945312 46.457031c-21.96875 31.953125-30.207032 71.382812-22.875 109.460937 7.332031 38.078125 29.625 71.628906 61.890625 93.136719l-26.578125-2.957031c-13.730469-1.511719-27.035156-5.699219-39.15625-12.328125l-8.683594-4.730469c-34.160156-18.617188-55.410156-54.414062-55.398438-93.320312v-4.796876c-.085937-28.222656 11.125-55.300781 31.136719-75.203124l59.199219-59.199219c24.1875-24.042969 37.75-56.765625 37.664062-90.871094v-50.769531l18.34375 18.34375c1.640626 1.640625 3.910157 2.488281 6.222657 2.324218 2.3125-.164062 4.441406-1.324218 5.832031-3.179687l12.257812-16.335937 6.886719 51.679687c4.382813 33.453125 21.816407 63.816406 48.496094 84.464844l60.921875 47.394531c22.453125 17.460938 36.972656 43.199219 40.304688 71.449219 3.335937 28.25-4.789063 56.65625-22.5625 78.867187zm0 0"/></svg>