<svg height="482pt" viewBox="-67 0 482 482.47586" width="482pt" xmlns="http://www.w3.org/2000/svg"><path d="m93.234375 184.960938-26.402344 15.101562c-9.109375 5.207031-19.417969 7.941406-29.910156 7.9375-13.253906 0-24 10.746094-24 24s10.746094 24 24 24h24l7.558594-3.777344c4.824219-2.40625 10.582031-1.96875 14.980469 1.144532 4.402343 3.113281 6.734374 8.394531 6.066406 13.746093-2.839844 22.757813-17.824219 42.175781-39.117188 50.695313-3.628906 1.449218-7.496094 2.191406-11.402344 2.191406h-.085937c-14.988281-.003906-27.789063 10.820312-30.273437 25.601562-2.214844 13.289063 4.496093 26.46875 16.542968 32.496094l15.761719 7.878906c7.632813 3.8125 16.507813 4.28125 24.496094 1.289063l51.472656-19.265625 5.832031 29.144531c1.417969 7.113281.957032 14.476563-1.335937 21.359375l-.367188 1.113282c-6.855469 20.5625 3.195313 42.945312 23.117188 51.488281 12.945312 5.546875 27.816406 4.183593 39.535156-3.625l14.195313-9.464844c9.582031-6.390625 16.09375-16.460937 17.992187-27.824219l3.605469-21.597656c.941406-5.640625.710937-11.414062-.679688-16.960938l-5.894531-23.632812 46.640625 20c6.050781 2.597656 12.816406 3.027344 19.152344 1.214844l25.429687-7.261719c12.300781-3.515625 20.78125-14.761719 20.777344-27.554687v-21.75c.011719-12.339844-7.882813-23.300782-19.59375-27.199219-2.921875-.96875-5.976563-1.457031-9.054687-1.449219h-39.824219c-2.34375 0-4.679688-.289062-6.953125-.855469l-28.574219-7.144531v-40h41.75c4.117187 0 8.191406-.863281 11.953125-2.535156l48.800781-21.695313c10.636719-4.71875 17.496094-15.261719 17.496094-26.898437v-21.726563c0-9.503906-4.59375-18.421875-12.328125-23.945312l-20.273438-14.488281c-13.011718-9.289063-31.0625-6.492188-40.65625 6.296874-4.34375 5.789063-10.667968 9.777344-17.765624 11.199219-7.597657 1.519531-15.488282-.105469-21.863282-4.507812-6.378906-4.402344-10.699218-11.199219-11.96875-18.84375l-1.257812-7.550781c-1.214844-7.257813-5.175782-13.765626-11.054688-18.183594l-22.832031-17.121094v-88h-48v88l-30.039063 18.023438c-6.390624 3.816406-10.996093 10.019531-12.800781 17.242187l-1.335937 5.335937c-2.375 9.546876.421875 19.636719 7.375 26.597657 3.054687 3.039062 4.515625 7.328125 3.949218 11.597656-.566406 4.269531-3.097656 8.027344-6.835937 10.164063zm0 0" fill="#fcb94e"/><g fill="#e99525"><path d="m292.992188 245.304688 19.382812-8.617188-10.605469-4.96875c-18.351562-7.347656-28.863281-26.730469-25.007812-46.117188l-15.679688-3.203124c-5.167969 25.824218 8.023438 51.824218 31.910157 62.90625zm0 0"/><path d="m221.082031 182.398438-8 40c-.351562 1.746093-.113281 3.554687.679688 5.144531l14.214843 28.457031h17.886719l-16.558593-33.128906 7.457031-37.269532zm0 0"/><path d="m304.121094 381.9375c1.5-.433594 2.964844-.984375 4.375-1.648438l-31.574219-31.601562v-28.6875h-16v32c0 2.121094.84375 4.15625 2.34375 5.65625l28 28zm0 0"/><path d="m213.160156 369.9375-8-32c-.679687-2.726562.121094-5.609375 2.105469-7.59375l16-16 11.3125 11.3125-12.800781 12.800781 9.335937 37.34375zm0 0"/><path d="m175.265625 362.34375-14.289063 14.289062-40.703124 8.167969 2.480468 12.375c.207032 1.054688.296875 2.128907.421875 3.199219l43.34375-8.535156c1.550781-.308594 2.972657-1.070313 4.089844-2.183594l16-16zm0 0"/><path d="m186.976562 408.238281-30.054687 7.515625-33.441406-8.355468c-.179688 3.78125-.875 7.515624-2.0625 11.105468l-.367188 1.113282c-.378906 1.125-.515625 2.269531-.800781 3.40625l34.710938 8.738281c1.277343.316406 2.613281.316406 3.886718 0l32-8zm0 0"/><path d="m63.761719 310.398438c-4.132813 3.011718-8.617188 5.507812-13.351563 7.433593-1.8125.707031-3.6875 1.242188-5.601562 1.601563l-3.320313 13.261718c-3.539062 13.804688 3.078125 28.199219 15.855469 34.503907l7.152344-14.320313c-6.023438-2.96875-9.140625-9.75-7.472656-16.253906zm0 0"/><path d="m81.882812 290.167969c-2.71875 4.824219-6.054687 9.269531-9.929687 13.222656 11.523437 20.480469 31.429687 34.898437 54.480469 39.464844l4.917968.984375 3.136719-15.679688-4.910156-.992187c-20.464844-4.933594-37.832031-18.402344-47.695313-37zm0 0"/><path d="m48.375 206.769531 22.890625 22.886719 11.3125-11.3125-17.457031-17.457031c-5.257813 2.78125-10.902344 4.761719-16.746094 5.882812zm0 0"/><path d="m178.519531 285.230469c-23.386719-13.957031-50.777343-19.679688-77.796875-16.253907l-12 2.191407c-1.164062 6.074219-3.210937 11.945312-6.082031 17.425781l20.519531-3.792969c23.332032-2.890625 46.957032 2.09375 67.128906 14.167969l6.511719 3.902344 8.238281-13.710938zm0 0"/><path d="m90.257812 130.847656c-.039062.144532-.121093.273438-.152343.417969l-1.335938 5.335937c-1.324219 5.359376-1.03125 10.996094.847657 16.191407 16.195312 14.839843 37.339843 23.113281 59.304687 23.207031v-16c-22.96875-.300781-44.554687-11.027344-58.664063-29.152344zm0 0"/><path d="m87.265625 250.34375-3.375 3.410156c3.910156 2.988282 6.023437 7.773438 5.597656 12.679688 3.679688-1.890625 9.058594-4.800782 9.058594-4.800782 23.441406-23.351562 56.476563-34.351562 89.238281-29.710937l2.273438-15.84375c-37.738282-5.292969-75.78125 7.386719-102.792969 34.265625zm0 0"/></g><path d="m4.921875 232c0 17.671875 14.324219 32 32 32h24c1.238281.011719 2.460937-.261719 3.574219-.800781l7.5625-3.785157c2.183594-1.09375 4.796875-.894531 6.789062.519532 1.996094 1.414062 3.050782 3.808594 2.746094 6.234375-2.492188 19.867187-15.574219 36.8125-34.160156 44.257812-2.707032 1.074219-5.597656 1.617188-8.511719 1.597657-17.941406.003906-33.527344 12.339843-37.648437 29.796874-4.121094 17.460938 4.300781 35.464844 20.34375 43.492188l15.757812 7.878906c9.632812 4.777344 20.808594 5.359375 30.882812 1.601563l42.664063-16 4 19.917969c1.144531 5.761718.769531 11.71875-1.097656 17.289062l-.367188 1.113281c-6.707031 20.125.113281 42.289063 16.972657 55.167969 16.859374 12.875 40.039062 13.621094 57.691406 1.855469l14.191406-9.464844c11.40625-7.632813 19.164062-19.632813 21.441406-33.167969l3.605469-21.640625c1.132813-6.71875.859375-13.597656-.796875-20.207031l-1.992188-7.953125 31.804688 13.601563c7.75 3.324218 16.402344 3.890624 24.515625 1.597656l25.429687-7.261719c15.710938-4.53125 26.546876-18.890625 26.601563-35.242187v-21.75c.007813-20.246094-16.40625-36.65625-36.648437-36.648438h-39.824219c-1.6875-.003906-3.367188-.207031-5.007813-.609375l-22.519531-5.628906v-25.761719h33.75c5.234375.011719 10.414063-1.078125 15.199219-3.199219l48.800781-21.695312c13.527344-6.015625 22.246094-19.429688 22.25-34.234375v-21.71875c-.011719-12.085938-5.84375-23.429688-15.671875-30.464844l-20.28125-14.488281c-16.574219-11.699219-39.441406-8.160157-51.703125 8-3.160156 4.222656-7.769531 7.128906-12.945313 8.160156-5.46875 1.09375-11.148437-.074219-15.742187-3.238281-4.589844-3.167969-7.703125-8.058594-8.625-13.5625l-1.257813-7.542969c-1.527343-9.292969-6.597656-17.628906-14.140624-23.261719l-19.632813-14.753906v-84c0-4.417969-3.582031-8-8-8h-48c-4.417969 0-8 3.582031-8 8v83.472656l-26.160156 15.726563c-8.210938 4.898437-14.125 12.878906-16.417969 22.160156l-1.335938 5.328125c-.394531 1.617188-.679687 3.261719-.847656 4.921875l-1.640625 1.191406c.464844.613281 1.015625 1.152344 1.496094 1.757813-.222656 9.832031 3.558594 19.332031 10.472656 26.320312 1.277344 1.277344 1.886719 3.078125 1.648438 4.867188-.242188 1.792968-1.304688 3.367187-2.871094 4.261718l-26.402344 15.105469c-7.902343 4.507813-16.84375 6.882813-25.941406 6.886719-17.675781 0-32 14.328125-32 32zm32-16c6.320313-.023438 12.605469-.925781 18.679687-2.679688l-.335937.335938 16 16 11.3125-11.3125-11.503906-11.503906 26.125-14.9375c9.453125-5.363282 13.445312-16.917969 9.320312-26.972656 12.976563 7.203124 27.5625 11.011718 42.402344 11.070312v-16c-19.710937-.058594-38.546875-8.144531-52.160156-22.398438l1.101562-4.417968c1.277344-5.160156 4.566407-9.597656 9.128907-12.328125l30.046874-18.023438c2.402344-1.441406 3.871094-4.03125 3.882813-6.832031v-80h32v80c0 2.519531 1.183594 4.890625 3.199219 6.398438l22.824218 17.121093c4.261719 3.167969 7.128907 7.859375 8 13.097657l1.253907 7.550781c1.632812 9.78125 7.160156 18.480469 15.320312 24.109375 8.160157 5.632812 18.253907 7.714844 27.976563 5.769531 9.03125-1.808594 17.078125-6.875 22.609375-14.238281 7.015625-9.257813 20.109375-11.289063 29.597656-4.59375l20.273437 14.488281c5.617188 4.035156 8.949219 10.53125 8.945313 17.449219v21.71875c-.003906 8.46875-4.992187 16.140625-12.730469 19.585937l-17.328125 7.703125-1.09375-.441406c-18.351562-7.347656-28.863281-26.730469-25.007812-46.117188l-15.679688-3.203124c-4.433593 22.230468 4.722657 44.972656 23.320313 57.929687l-13.027344 5.792969c-2.734375 1.230468-5.699219 1.871094-8.703125 1.878906h-20.800781l-12.558594-25.128906 7.449219-37.269532-15.679688-3.203124-8 40c-.351562 1.746093-.113281 3.554687.679688 5.144531l10.214843 20.457031h-3.054687c-4.417969 0-8 3.582031-8 8v40c0 3.667969 2.496094 6.867188 6.054687 7.761719l28.601563 7.148437c2.902344.722656 5.878906 1.085938 8.871094 1.089844h39.824219c2.21875.003906 4.421874.359375 6.527343 1.054688 8.4375 2.804687 14.128907 10.703124 14.121094 19.59375v21.75c-.039063 9.050781-5.949219 17.027343-14.59375 19.707031l-25.40625-25.417969v-28.6875h-16v32c0 2.121094.84375 4.15625 2.34375 5.65625l21.496094 21.496094-8.25 2.351562c-4.5625 1.3125-9.4375 1.007813-13.796875-.871094l-34.035156-14.585937-6.902344-27.589844 12.800781-12.800781-11.3125-11.3125-16 16c-1.984375 1.984375-2.785156 4.867188-2.105469 7.59375l5.601563 22.4375c-1.109375.28125-2.144531.804688-3.03125 1.527344-2.304688 1.964844-3.300781 5.0625-2.578125 8l5.898437 23.59375c1.125 4.480468 1.308594 9.148437.542969 13.703125l-3.601562 21.601562c-1.542969 9.179688-6.804688 17.3125-14.542969 22.488281l-14.183594 9.511719c-11.5 7.695313-26.542969 7.546875-37.886719-.375s-16.664062-21.996093-13.394531-35.441406l26.992187 6.75c1.277344.320313 2.613282.320313 3.886719 0l32-8-3.886719-15.519531-30.054687 7.539062-25.601563-6.402344c.265626-3.46875.164063-6.953124-.296874-10.398437l35.496093-7.113281c1.550781-.308594 2.972657-1.070313 4.089844-2.183594l16-16-11.3125-11.3125-14.289063 14.289062-32.886718 6.566407-3.359375-16.800781c-.460938-2.300782-1.90625-4.28125-3.953125-5.421876-2.050782-1.140624-4.5-1.328124-6.695313-.503906l-51.464843 19.3125c-5.914063 2.195313-12.472657 1.847656-18.121094-.960937l-15.757813-7.878907c-9.382812-4.734374-14.289062-15.296874-11.851562-25.519531 2.4375-10.222656 11.582031-17.433593 22.089843-17.425781 1.273438 0 2.503907-.230469 3.761719-.351562l-1.273437 5.0625c-3.53125 13.796874 3.078125 28.183593 15.847656 34.488281l7.152344-14.320313c-6.023438-2.96875-9.140625-9.75-7.472656-16.253906l3.65625-14.648438-.285157-.074218c5.824219-3.089844 11.191407-6.976563 15.941407-11.550782 11.902343 16.875 29.839843 28.527344 50.097656 32.542969l4.917968.984375 3.136719-15.679687-4.910156-.992188c-17.808594-3.519531-33.3125-14.371093-42.722656-29.894531 2.160156-3.347656 4.035156-6.867188 5.601562-10.527344l10.703125-1.984375c23.332032-2.890625 46.957032 2.09375 67.128906 14.167969l6.511719 3.902344 8.238281-13.710938-6.511718-3.914062c-23.386719-13.957032-50.777344-19.679688-77.796875-16.253906l-3.5625.648437c.082031-.511719.234375-1 .296875-1.511719.292968-2.761718.066406-5.554687-.664063-8.234375l1.777344 1.777344c23.425781-23.355469 56.449219-34.367187 89.207031-29.75l2.273438-15.84375c-36.632813-5.09375-73.597656 6.746094-100.449219 32.179687-.527344-.457031-.945313-1.011718-1.519531-1.425781-6.816406-4.828125-15.734375-5.507812-23.199219-1.769531l-5.859375 2.9375h-22.109375c-8.835937 0-16-7.164062-16-16s7.164063-16 16-16zm0 0"/></svg>