<svg height="512pt" viewBox="-47 0 512 512" width="512pt" xmlns="http://www.w3.org/2000/svg"><g fill="#ffc15a"><path d="m179.265625 154.402344c0 16.617187 23.820313 53.910156 30.089844 53.910156s30.089843-37.292969 30.089843-53.910156c0-16.617188-13.472656-30.089844-30.089843-30.089844-16.617188 0-30.089844 13.472656-30.089844 30.089844zm0 0"/><path d="m263.265625 238.402344c-16.617187 0-53.910156-23.820313-53.910156-30.089844s37.292969-30.089844 53.910156-30.089844 30.089844 13.472656 30.089844 30.089844-13.472657 30.089844-30.089844 30.089844zm0 0"/><path d="m155.445312 238.402344c16.617188 0 53.910157-23.820313 53.910157-30.089844s-37.292969-30.089844-53.910157-30.089844c-16.617187 0-30.089843 13.472656-30.089843 30.089844s13.472656 30.089844 30.089843 30.089844zm0 0"/><path d="m179.265625 262.222656c0-16.617187 23.820313-53.910156 30.089844-53.910156s30.089843 37.292969 30.089843 53.910156c0 16.621094-13.472656 30.089844-30.089843 30.089844-16.617188 0-30.089844-13.46875-30.089844-30.089844zm0 0"/><path d="m95.054688 64.914062c-11.753907 11.753907-21.277344 54.964844-16.84375 59.398438 4.429687 4.433594 47.644531-5.09375 59.394531-16.84375s11.75-30.800781 0-42.554688c-11.75-11.75-30.800781-11.75-42.550781 0zm0 0"/><path d="m95.054688 183.710938c-11.753907-11.75-21.277344-54.964844-16.84375-59.398438 4.429687-4.433594 47.644531 5.09375 59.394531 16.84375s11.75 30.804688 0 42.554688-30.800781 11.75-42.550781 0zm0 0"/><path d="m18.8125 107.46875c11.75 11.75 54.964844 21.277344 59.398438 16.84375 4.429687-4.433594-5.09375-47.644531-16.847657-59.398438-11.75-11.75-30.800781-11.75-42.550781 0-11.75 11.753907-11.75 30.804688 0 42.554688zm0 0"/><path d="m18.8125 141.15625c11.75-11.75 54.964844-21.277344 59.398438-16.84375 4.429687 4.433594-5.09375 47.648438-16.847657 59.398438-11.75 11.75-30.800781 11.75-42.550781 0s-11.75-30.804688 0-42.554688zm0 0"/><path d="m323.660156 64.914062c11.75 11.753907 21.277344 54.964844 16.84375 59.398438s-47.648437-5.09375-59.398437-16.84375-11.75-30.800781 0-42.554688c11.75-11.75 30.800781-11.75 42.554687 0zm0 0"/><path d="m323.660156 183.710938c11.75-11.75 21.277344-54.964844 16.84375-59.398438s-47.648437 5.09375-59.398437 16.84375-11.75 30.804688 0 42.554688 30.800781 11.75 42.554687 0zm0 0"/><path d="m399.898438 107.46875c-11.75 11.75-54.960938 21.277344-59.394532 16.84375s5.09375-47.644531 16.84375-59.398438c11.75-11.75 30.800782-11.75 42.550782 0 11.753906 11.753907 11.753906 30.804688 0 42.554688zm0 0"/><path d="m399.898438 141.15625c-11.75-11.75-54.960938-21.277344-59.394532-16.84375s5.09375 47.648438 16.84375 59.398438 30.800782 11.75 42.550782 0c11.753906-11.75 11.753906-30.804688 0-42.554688zm0 0"/></g><path d="m182.5625 58.003906c0-14.800781 21.210938-48.003906 26.792969-48.003906s26.792969 33.203125 26.792969 48.003906c0 14.796875-11.996094 26.789063-26.792969 26.789063s-26.792969-11.992188-26.792969-26.789063zm0 0" fill="#d8ec84"/><path d="m217.203125 85.265625c10.460937-10.464844 48.941406-18.945313 52.886719-15 3.945312 3.949219-4.535156 42.425781-14.996094 52.886719-10.464844 10.464844-27.429688 10.464844-37.890625 0-10.464844-10.460938-10.464844-27.425782 0-37.886719zm0 0" fill="#d8ec84"/><path d="m201.507812 85.265625c-10.460937-10.464844-48.9375-18.945313-52.886718-15-3.945313 3.949219 4.535156 42.425781 15 52.886719 10.460937 10.464844 27.425781 10.464844 37.886718 0 10.464844-10.460938 10.464844-27.425782 0-37.886719zm0 0" fill="#d8ec84"/><path d="m406.972656 134.085938c-3.867187-3.863282-9.582031-7.128907-15.511718-9.773438 5.929687-2.640625 11.644531-5.90625 15.511718-9.773438 15.628906-15.628906 15.628906-41.0625 0-56.695312-15.632812-15.628906-41.066406-15.628906-56.695312 0-3.867188 3.867188-7.128906 9.582031-9.773438 15.511719-2.644531-5.929688-5.90625-11.644531-9.773437-15.511719-15.628907-15.628906-41.0625-15.628906-56.695313 0-.734375.734375-1.421875 1.5-2.089844 2.277344-4.242187-1.21875-11.796874-1.464844-26.03125 1.980468.152344-1.347656.234376-2.714843.234376-4.097656 0-11.453125-7.953126-26.617187-12.691407-34.640625-13.8125-23.363281-21.023437-23.363281-24.101562-23.363281s-10.285157 0-24.097657 23.363281c-4.738281 8.019531-12.691406 23.1875-12.691406 34.640625 0 1.382813.082032 2.75.234375 4.09375-14.234375-3.441406-21.789062-3.195312-26.035156-1.980468-.664063-.773438-1.355469-1.539063-2.089844-2.273438-15.628906-15.628906-41.0625-15.628906-56.695312 0-3.863281 3.867188-7.128907 9.582031-9.769531 15.511719-2.644532-5.929688-5.910157-11.644531-9.773438-15.511719-15.632812-15.628906-41.066406-15.628906-56.695312 0-15.628907 15.632812-15.628907 41.0625 0 56.695312 3.863281 3.867188 9.582031 7.128907 15.511718 9.773438-5.929687 2.640625-11.648437 5.90625-15.511718 9.773438-7.570313 7.570312-11.742188 17.640624-11.742188 28.347656 0 10.707031 4.171875 20.777344 11.742188 28.347656 7.570312 7.570312 17.640624 11.742188 28.347656 11.742188 10.710937 0 20.777344-4.171876 28.347656-11.742188 3.867188-3.867188 7.128906-9.582031 9.773438-15.511719 2.644531 5.929688 5.90625 11.644531 9.773437 15.511719 7.441406 7.441406 17.296875 11.589844 27.796875 11.730469-.273438 1.894531-.421875 3.832031-.421875 5.800781 0 22.105469 17.984375 40.089844 40.085937 40.089844 5.46875 0 11.820313-1.734375 17.878907-4.058594-2.320313 6.0625-4.054688 12.414062-4.054688 17.878906 0 18.65625 12.804688 34.375 30.089844 38.828125v28.660157c-19.707031-1.125-38.074219-9.324219-52.144531-23.394532-3.90625-3.902344-10.238282-3.902344-14.144532 0-3.902343 3.90625-3.902343 10.238282 0 14.144532 17.851563 17.847656 41.238282 28.144531 66.289063 29.285156v52.433594c-19.707031-1.125-38.074219-9.320313-52.144531-23.390626-3.90625-3.90625-10.238282-3.90625-14.144532 0-3.902343 3.902344-3.902343 10.234376 0 14.140626 17.851563 17.847656 41.238282 28.144531 66.289063 29.289062v79.78125c0 5.523438 4.476563 10 10 10s10-4.476562 10-10v-43.535156c25.144531-1.085938 48.628906-11.390625 66.539063-29.300782 3.90625-3.902343 3.90625-10.234374 0-14.140624s-10.238282-3.90625-14.144532 0c-14.128906 14.128906-32.59375 22.339843-52.394531 23.410156v-52.441406c9.847656-.433594 19.539063-2.304688 28.867187-5.585938 5.210938-1.832031 7.949219-7.539062 6.117188-12.75s-7.539062-7.945312-12.753906-6.117188c-7.1875 2.53125-14.648438 4-22.230469 4.414063v-64.902344c17.28125-4.457031 30.089844-20.175781 30.089844-38.828125 0-5.46875-1.734375-11.816406-4.058594-17.878906 6.0625 2.320312 12.414063 4.054688 17.878906 4.054688 22.105469 0 40.089844-17.980469 40.089844-40.085938 0-1.972656-.148437-3.910156-.425781-5.804688 10.503906-.140624 20.355468-4.285156 27.800781-11.730468 3.863281-3.863282 7.128906-9.582032 9.773437-15.507813 2.640626 5.929688 5.90625 11.644531 9.769532 15.507813 7.574218 7.574218 17.640625 11.742187 28.347656 11.742187 10.710938 0 20.777344-4.167969 28.347656-11.742187 7.574219-7.570313 11.742188-17.636719 11.742188-28.347656 0-10.703126-4.171875-20.773438-11.742188-28.34375zm-28.347656-67.972657c5.144531 0 10.289062 1.957031 14.203125 5.875 7.832031 7.832031 7.832031 20.578125 0 28.410157-5.652344 5.65625-23.558594 11.261718-36.230469 13.746093-1.90625-.304687-3.652344-.523437-5.25-.675781-.152344-1.597656-.375-3.34375-.675781-5.25 2.484375-12.671875 8.089844-30.578125 13.746094-36.230469 3.917969-3.917969 9.0625-5.875 14.207031-5.875zm-90.449219 5.875c3.917969-3.917969 9.0625-5.875 14.207031-5.875 5.144532 0 10.289063 1.957031 14.207032 5.875 5.652344 5.652344 11.261718 23.558594 13.746094 36.230469-.304688 1.90625-.523438 3.652344-.675782 5.25-1.597656.152344-3.34375.371094-5.25.675781-12.671875-2.484375-30.578125-8.09375-36.230468-13.746093-7.835938-7.832032-7.835938-20.578126-.003907-28.410157zm-15.703125 40.890625c.503906.5625 1.019532 1.121094 1.5625 1.660156 3.863282 3.867188 9.582032 7.132813 15.511719 9.773438-5.929687 2.644531-11.648437 5.90625-15.511719 9.773438-7.570312 7.570312-11.742187 17.640624-11.742187 28.347656 0 1.960937.144531 3.898437.417969 5.804687-5.339844.109375-11.464844 1.796875-17.324219 4.042969 2.324219-6.0625 4.058593-12.414062 4.058593-17.878906 0-5.269532-1.03125-10.300782-2.886718-14.914063 5.714844-1.675781 11.101562-4.761719 15.605468-9.261719 4.257813-4.257812 7.675782-10.792968 10.308594-17.347656zm-63.117187 80.101563c-1.238281-1.023438-2.625-2.101563-4.1875-3.238281-7.207031-10.714844-15.902344-27.34375-15.902344-35.339844 0-11.078125 9.011719-20.089844 20.089844-20.089844s20.089843 9.011719 20.089843 20.089844c0 7.996094-8.695312 24.625-15.898437 35.339844-1.566406 1.136718-2.953125 2.210937-4.191406 3.238281zm38.667969-76.898438c-6.546876 6.546875-17.203126 6.546875-23.75 0-6.546876-6.546875-6.546876-17.199219 0-23.746093.628906-.628907 1.441406-1.253907 2.386718-1.875.824219-.441407 1.625-.917969 2.410156-1.417969 8.375-4.449219 23.09375-8.378907 31.738282-9.496094-1.386719 10.738281-7.113282 30.859375-12.785156 36.535156zm-38.667969-92.957031c6.613281 8.574219 16.792969 26.851562 16.792969 34.878906 0 9.257813-7.535157 16.789063-16.792969 16.789063-9.257813 0-16.792969-7.53125-16.792969-16.789063 0-8.027344 10.179688-26.304687 16.792969-34.878906zm-19.710938 65.921875c.785157.496094 1.585938.972656 2.40625 1.414063.949219.621093 1.761719 1.246093 2.386719 1.875 6.546875 6.546874 6.546875 17.199218 0 23.746093s-17.199219 6.550781-23.746094 0c-5.675781-5.675781-11.402344-25.796875-12.789062-36.535156 8.648437 1.117187 23.371094 5.046875 31.742187 9.5zm-17.488281 50.441406c-1.855469 4.613281-2.890625 9.644531-2.890625 14.914063 0 5.46875 1.734375 11.816406 4.058594 17.878906-5.859375-2.246094-11.984375-3.933594-17.320313-4.042969.273438-1.90625.414063-3.84375.414063-5.804687 0-10.707032-4.167969-20.773438-11.742188-28.347656-3.863281-3.863282-9.582031-7.128907-15.507812-9.773438 5.929687-2.640625 11.644531-5.90625 15.507812-9.773438.542969-.539062 1.0625-1.09375 1.566407-1.660156 2.628906 6.554688 6.050781 13.089844 10.308593 17.34375 4.5 4.503906 9.886719 7.589844 15.605469 9.265625zm-41.621094-67.5c7.832032 7.832031 7.832032 20.578125 0 28.410157-5.65625 5.65625-23.558594 11.261718-36.230468 13.746093-1.90625-.304687-3.652344-.523437-5.25-.675781-.152344-1.597656-.375-3.34375-.675782-5.25 2.484375-12.671875 8.089844-30.578125 13.746094-36.230469 7.832031-7.835937 20.578125-7.832031 28.410156 0zm-104.652344 0c7.832032-7.835937 20.578126-7.832031 28.410157 0 5.65625 5.652344 11.261719 23.558594 13.746093 36.230469-.300781 1.90625-.523437 3.652344-.675781 5.25-1.597656.152344-3.339843.371094-5.25.675781-12.667969-2.484375-30.574219-8.09375-36.230469-13.746093-7.832031-7.832032-7.832031-20.578126 0-28.410157zm14.207032 110.535157c-5.367188 0-10.414063-2.089844-14.207032-5.886719-3.792968-3.792969-5.886718-8.835938-5.886718-14.203125 0-5.367188 2.09375-10.410156 5.886718-14.207032 5.652344-5.652343 23.554688-11.261718 36.226563-13.742187 1.910156.300781 3.65625.523437 5.253906.671875.152344 1.601562.375 3.34375.675781 5.25-2.484374 12.671875-8.089843 30.578125-13.746093 36.230469-3.792969 3.796875-8.839844 5.886719-14.203125 5.886719zm62.035156-5.882813c-5.65625-5.65625-11.261719-23.5625-13.746094-36.230469.300782-1.90625.523438-3.652344.675782-5.25 1.597656-.152344 3.34375-.375 5.253906-.675781 12.671875 2.484375 30.574218 8.089844 36.226562 13.746094 3.792969 3.792969 5.882813 8.835937 5.882813 14.203125 0 5.367187-2.089844 10.410156-5.882813 14.207031-3.792968 3.792969-8.839844 5.882813-14.207031 5.882813-5.363281 0-10.410156-2.089844-14.203125-5.882813zm33.230469 31.671875c0-11.078125 9.011719-20.089844 20.089843-20.089844 7.996094 0 24.625 8.695313 35.339844 15.902344 1.132813 1.5625 2.210938 2.949219 3.234375 4.1875-1.023437 1.238281-2.101562 2.628906-3.238281 4.191406-10.714844 7.203125-27.339844 15.898438-35.335938 15.898438-11.078124 0-20.089843-9.011719-20.089843-20.089844zm74 74c-11.078125 0-20.089844-9.011719-20.089844-20.089844 0-7.996094 8.695313-24.621094 15.902344-35.335937 1.5625-1.136719 2.949219-2.214844 4.1875-3.238281 1.238281 1.023437 2.628906 2.101562 4.191406 3.238281 7.203125 10.714843 15.898437 27.339843 15.898437 35.335937 0 11.078125-9.011718 20.089844-20.089843 20.089844zm53.910156-53.910156c-7.996094 0-24.621094-8.695313-35.335937-15.898438-1.136719-1.566406-2.214844-2.953125-3.238282-4.191406 1.023438-1.238281 2.101563-2.625 3.234375-4.1875 10.71875-7.207031 27.34375-15.902344 35.339844-15.902344 11.078125 0 20.089844 9.011719 20.089844 20.089844s-9.011719 20.089844-20.089844 20.089844zm53.324219-51.761719c-3.796875 3.792969-8.839844 5.882813-14.207032 5.882813-5.367187 0-10.410156-2.089844-14.207031-5.882813-3.792969-3.796875-5.882812-8.839844-5.882812-14.207031 0-5.367188 2.089843-10.410156 5.882812-14.203125 5.652344-5.65625 23.554688-11.261719 36.226563-13.746094 1.910156.300781 3.65625.523437 5.257812.675781.148438 1.597656.371094 3.34375.671875 5.25-2.480469 12.667969-8.089843 30.574219-13.742187 36.230469zm76.238281 0c-3.792969 3.792969-8.839844 5.882813-14.203125 5.882813-5.367188 0-10.410156-2.089844-14.207031-5.882813-5.652344-5.65625-11.261719-23.5625-13.746094-36.230469.304687-1.90625.523437-3.652344.675781-5.25 1.597656-.152344 3.34375-.375 5.253906-.675781 12.671876 2.484375 30.574219 8.089844 36.226563 13.746094 3.792969 3.792969 5.886719 8.835937 5.886719 14.203125 0 5.367187-2.09375 10.410156-5.886719 14.207031zm0 0"/><path d="m271.757812 342.550781c-1.863281 1.859375-2.933593 4.4375-2.933593 7.070313 0 2.640625 1.070312 5.207031 2.933593 7.066406 1.859376 1.871094 4.4375 2.933594 7.066407 2.933594 2.632812 0 5.210937-1.0625 7.070312-2.933594 1.863281-1.859375 2.929688-4.429688 2.929688-7.066406 0-2.632813-1.066407-5.210938-2.929688-7.070313-1.859375-1.859375-4.4375-2.929687-7.070312-2.929687-2.628907 0-5.207031 1.066406-7.066407 2.929687zm0 0"/></svg>