<svg xmlns="http://www.w3.org/2000/svg" width="100" height="100" enable-background="new 0 0 100 100" viewBox="0 0 100 100"><path fill="#BD8C62" d="M53.158 24.038c-.403-.295-1.523-1.232-2.489-2.084-.965-.851-2.68-1.493-3.81-1.427-1.131.066-2.748-.693-3.596-1.688-.847-.996-2.799-1.68-4.337-1.521-1.539.158-4.25.758-6.024 1.332-1.775.573-4.823 2.113-6.774 3.421-1.95 1.309-5.006 3.778-6.789 5.49-1.783 1.711-3.565 4.508-3.959 6.216-.394 1.707-1.528 4.657-2.521 6.553-.993 1.896-1.917 4.66-2.056 6.141-.138 1.48.064 3.912.447 5.404.384 1.49 1.418 3.784 2.298 5.097.881 1.312 2.107 3.767 2.728 5.455.62 1.689 3.503 3.541 6.407 4.115 2.903.574 7.497.039 10.206-1.189 2.71-1.229 6.553-2.839 8.539-3.577 1.986-.739 4.568-1.986 5.738-2.771 1.17-.786 2.658-2.943 3.307-4.795.649-1.852 2.656-4.881 4.46-6.73 1.803-1.851 3.748-5.11 4.323-7.243.574-2.135 1.041-5.014 1.036-6.399s-.437-3.157-.96-3.938c-.524-.78-1.36-2.027-1.859-2.772-.499-.744-1.511-1.623-2.245-1.952C54.493 24.844 53.562 24.333 53.158 24.038zM59.51 56.775c-.969.723-1.898 2.445-2.068 3.828-.169 1.383-.76 2.726-1.313 2.983-.554.257-1.288 1.427-1.633 2.599s-.586 3.157-.537 4.413c.049 1.255.82 3.631 1.715 5.279.895 1.649 2.543 4.113 3.662 5.477 1.12 1.363 2.709 3.241 3.532 4.175s2.199 2.04 3.06 2.46c.859.42 2.412 1.136 3.45 1.591 1.037.454 2.892.852 4.12.883 1.229.03 3.196.414 4.372.852s3.241.493 4.59.124c1.349-.37 3.216-1.223 4.148-1.893.933-.671 1.772-1.798 1.865-2.504.094-.705 1.139-2.213 2.322-3.349 1.184-1.137 2.253-3.17 2.376-4.518s.287-3.238.365-4.2-.096-2.856-.387-4.209c-.292-1.353-.981-3.72-1.532-5.26s-1.714-3.73-2.583-4.867c-.87-1.137-2.337-3.028-3.26-4.203-.922-1.175-2.196-2.31-2.829-2.521-.634-.213-2.077-1.068-3.207-1.902-1.131-.833-3.905-1.758-6.165-2.055-2.261-.297-4.419.693-4.795 2.2-.377 1.507-1.739 2.418-3.028 2.024s-2.824-.267-3.412.282C61.75 55.013 60.478 56.053 59.51 56.775z"/><path fill="#33261A" d="M51.846,15.292c-5.148-5.217-9.06-7.841-16.803-6.719c-7.467,1.082-13.689,5.553-19.116,10.522
		c-5.421,4.965-7.947,11.875-9.208,18.938c-1.336,7.474,2.399,13.218,7.129,18.586C32.64,77.954,77.004,30.624,51.846,15.292z
		 M14.47,51.12c-1.137-1.37-2.021-2.806-2.691-4.28c0.127-0.079,0.257-0.143,0.394-0.138l1.046,0.497
		c1.008,0.407,2.108,0.482,2.792,1.386c0.427,0.735,1.885,2.112,1.327,2.725c-0.113,0.125-0.343,0.763-0.456,0.834
		c-0.431,0.271-0.955-0.048-1.438,0.087C15.113,51.873,14.788,51.504,14.47,51.12z M46.871,47.562
		c-2.082,2.589-5.094,4.779-8.276,6.523c-0.099-0.118-0.215-0.229-0.354-0.338c-0.85-0.653-2.365-0.363-1.825,0.932
		c0.038,0.146,0.096,0.298,0.153,0.448c-0.917,0.439-1.829,0.847-2.731,1.209c-0.19-0.523-0.424-1.031-0.726-1.508
		s-0.831-1.343-1.543-1.009c-0.563,0.261-0.398,1.105-0.386,1.578c0.097,0.585,0.229,1.183,0.426,1.756
		c-0.706,0.229-1.398,0.417-2.074,0.546c0.07-0.459,0.009-0.926-0.243-1.325c-0.497-0.788-1.691-1.196-1.961-0.016
		c-0.165,0.446-0.198,1.067-0.091,1.589c-0.828,0.024-1.634-0.027-2.417-0.151c0.191-0.476,0.346-0.945,0.278-1.51
		c0-1.092-1.918-2.014-1.918-0.715c-0.245,0.465-0.509,1.092-0.546,1.677c-2.05-0.708-3.939-1.917-5.691-3.521
		c0.842,0.116,1.028-0.438,1.592-0.95c0.297-0.271,0.748-0.265,1.065-0.546c0.633-0.625,0.302-1.635-0.074-2.297
		c-0.638-1.028-1.134-2.31-1.96-3.214c-1.043-1.144-2.25-1.136-3.646-1.444c-0.814-0.181-1.802-0.574-2.564-0.01l-0.155,0.149
		c-3.232-9.135,1.501-19.518,9.002-25.929c4.375-3.74,9.153-6.157,14.78-7.28c6.21-1.24,9.927,1.896,13.937,5.926
		c0.095,0.155,0.669,0.615,0.81,0.675C61.037,26.113,53.623,39.166,46.871,47.562z"/><path fill="#33261A" d="M23.53 26.897c.12-2.111-2.224 1.647-2.531 2.057-1.978 2.633-4.459 4.563-4.552 8.104-.008.366-.195 3.913.896 3.383.788-.384.936-2.479 1.11-3.212.362-1.184.766-2.082 1.37-3.146.708-1.241 1.823-2.166 2.499-3.453C22.912 29.51 23.455 28.184 23.53 26.897zM25.13 23.989c.744.041 1.615-.958 2.342-1.166 1.084-.31 2.119-.211 3.172-.746 1.295-.683 2.021-1.901 3.274-2.641.896-.542 1.884-.997 2.835-1.434.362-.167 3.95-1.557 3.139-2.312-.729-.677-2.964.189-3.757.369-1.685.414-3.359 1.074-4.679 2.235-1.113.98-1.681 1.973-3.219 2.471-.788.222-1.535.49-2.16 1.04C25.859 21.997 24.351 23.744 25.13 23.989zM51.214 29.15c-.59-.192-1.371 1.398-1.601 1.823-1.064 1.983-3.072 3.22-3.584 5.278-.181.579-.438 1.761-.004 2.28.546.651 1.952-1.915 2.256-2.311 1.128-1.468 2.578-2.517 3.171-4.345C51.633 31.322 52.096 29.438 51.214 29.15zM43.538 41.441c-.975.65-1.957 1.239-2.961 1.844-.421.277-1.703 1.267-.642 1.662.719.268 1.844.058 2.531-.187 1.128-.401 1.873-.951 2.568-1.91.281-.39.613-1.227.38-1.703C44.95 40.196 44.019 41.05 43.538 41.441zM37.231 45.677c-.714-.47-2.217.409-2.867.663-.937.286-1.699.552-3.019.622-.284.016-1.618-.258-1.947-.27-.838-.034-1.72.124-2.498.435-.668.247-2.084.871-2.265 1.648-.169.732 3.083.119 3.596.1 1.313-.074 2.512.505 3.824.386 1.146-.104 2.311-.439 3.258-1.122C35.684 47.872 38.186 46.306 37.231 45.677zM41.054 22.377c.842-1.009.573-2.228-.914-1.834-.789.341-1.47.773-2.085 1.386-.38.354-.853 1.109-.709 1.671.225.881 1.291.389 1.805.161C39.919 23.419 40.526 23.01 41.054 22.377zM31.265 27c-1.055.996-2.17 2.534-3.308 3.79-.424.468-1.422 1.186-1.403 1.914.029 1.095 2.697-.338 3.058-.587 1.304-.899 2.155-2.266 2.998-3.571.294-.455 1.659-1.92.671-2.352C32.947 26.048 31.938 26.363 31.265 27zM73.114 69.951c.453.27 2.066 1.652 2.439.627.133-.365-.521-1.553-1.146-2.044-.962-.755-2.338-1.937-3.606-2.986-.624-.517-1.304-1.388-2.121-1.629-1.336-.394.007 2.217.23 2.589C69.872 68.107 71.56 69.026 73.114 69.951zM24.343 35.138c-.502-1.003-1.533.121-1.963.523-.81.854-1.703 1.932-2.003 3.103-.329.733-.344 1.786-.022 2.535.637 1.479 1.36-.507 1.652-.994.735-1.003 1.414-2.186 1.951-3.313C24.191 36.504 24.614 35.679 24.343 35.138zM64.238 58.414c-1.132-.836-2.278-.315-1.72 1.113.346.758.862 1.605 1.583 2.072 1.011.917 3.181.507 1.884-.999C65.355 59.867 65.042 59.006 64.238 58.414zM40.86 30.93c.822.509 2.743-.332 3.508-.754 1.382-.763 2.198-1.749 2.854-3.143.236-.505.572-1.698.191-2.208-.684-.916-1.642.724-1.966 1.174-1.042 1.244-2.123 2.215-3.479 3.132C41.603 29.391 40.032 30.417 40.86 30.93zM29.034 43.422c1.323-.627 2.396-1.649 3.624-2.43 1.179-.747 2.461-1.141 3.317-2.324.345-.477 1.716-2.963.702-3.439-.708-.331-1.734 1.797-2.327 2.251-.551.421-3.342 1.784-3.514 1.905-1.326.93-2.468 2.053-3.882 2.869-.665.357-2.357.863-2.606 1.644C24.023 44.917 28.615 43.621 29.034 43.422z"/><path fill="#33261A" d="M85.675,49.178c-8.477-10.932-20.691-7.692-30.237-0.391l-0.413,0.36
		c-19.015,18.443,16.164,51.091,34.026,30.9C96.808,71.28,91.777,57.047,85.675,49.178z M88.81,72.364
		c-0.395,4.403-3.071,7.358-6.582,9.101c0.474-0.375-0.578-2.548-0.684-2.528l0.043-0.204c0.228-0.395,3.16-2.6,3.949-2.477
		c0.424,0.066,0.309,2.428,1.12,1.484c0.992-1.157,0.677-3.008-0.878-3.432c-1.457-0.399-2.481,0.405-3.525,1.224
		c-1.341,1.054-3.536,1.945-2.624,4.075c0.288,0.525,1.744,2.459,2.578,1.868c-1.633,0.807-3.444,1.354-5.292,1.659
		c-1.975,0.326-4.432-0.25-6.821-1.181c0.228-0.58,0.397-1.183,0.482-1.761c0.091-0.627,0.251-1.354-0.285-1.837
		c-0.621-0.547-1.231,0.454-1.536,0.843c-0.341,0.584-0.604,1.192-0.82,1.82c-0.692-0.332-1.361-0.682-1.997-1.034
		c0.388-0.318,0.673-0.738,0.737-1.239c0.12-0.923-0.539-2.003-1.499-1.265c-0.468,0.273-0.938,0.829-1.166,1.363
		c-0.276-0.174-0.542-0.345-0.788-0.511c-8.045-5.406-13.916-19.044-6.129-26.892c6.63-5.015,13.101-7.546,20.988-3.753
		C86.722,51.844,89.576,63.824,88.81,72.364z"/><path fill="#33261A" d="M57.863 61.888c-.129-.466-.145-1.036-.197-1.517-.063-.587-.073-1.553-.825-1.691-.768-.142-.987.883-1.176 1.395-.433 1.241-.265 2.92.753 3.845.775.703 2.961 2.706 2.382.135C58.615 63.234 58.067 62.628 57.863 61.888zM66.389 70.976c-.596-.554-1.555-2.654-1.854-2.962-.798-.818-2.245-1.574-3.424-1.545-.474.012-1.765.354-.965 1.013.748.617 1.632 1.128 2.401 1.752.517.313 1.058 1.492 1.048 1.49.247 1.433 1.42 1.866 2.626 2.233.518.158 2.206.666 1.739-.55C67.692 71.712 66.9 71.453 66.389 70.976zM74.972 75.171c-1.53-.931-3.077-2.461-5.048-1.874-.439.132-1.374.447-1.302 1.022.077.598 2.017.904 2.54 1.116.495.112.979.678 1.399.984.595.487 1.389.806 2.168.757.66-.041 2.273-.693 1.681-1.712C76.066 74.874 75.429 75.387 74.972 75.171zM84.137 67.305c.08.556-.252 1.252.18 1.732.564.629 1.684-.143 1.729-.837.028-.428-.083-1.599-.289-2.579-.205-.976-.196-3.403-1.801-2.28C82.354 64.463 83.945 65.959 84.137 67.305zM80.479 53.62c-.684-.486-1.563-1.148-2.457-1.151-1.323-.004.449 1.882.699 2.22 1.121 1.508 2.155 3.229 3.365 4.648.319.376 1.664 1.994 2.164.952.114-.24-.381-1.85-.515-2.086C82.799 56.55 81.984 54.695 80.479 53.62zM70.954 50.296c.519.237 1.127.271 1.676.471.244.089.949.27 1.177.331 1.371.375 2.563-.893 1.044-1.762-.542-.31-.579-.45-1.514-.711-.484-.135-1.504-.366-1.854-.278-.263.065-1.102.166-1.375.419C69.376 49.443 70.385 50.035 70.954 50.296zM63.608 53.67c.711.327 1.15.956 1.888 1.341.9.471 1.867.755 2.735 1.288.561.345 1.938.805 1.508-.421-.392-1.118-1.24-1.878-2.251-2.42-1.143-.613-2.309-1.696-3.654-1.757-.608-.051-1.865.222-1.786 1.068C62.079 53.111 63.301 53.529 63.608 53.67zM74.06 56.898c-1.447-.661-2.237.116-1.309 1.565.447.697.926 1.161 1.528 1.683.474.411 1.027.928 1.659.363.265-.236.323-.905.14-1.232C75.6 58.422 74.974 57.314 74.06 56.898zM77.416 62.124c-.991-1.128-1.174 2.261-1.104 2.741.264 1.839 1.813 2.719 2.384 4.34.207.588-.131 1.909.736 2.092.898.189 1.259-1.681 1.281-2.241.033-2.084-1.472-2.558-2.144-4.221C78.106 64.007 78.056 62.851 77.416 62.124z"/></svg>