<svg height="463pt" viewBox="0 -59 463.50522 463" width="463pt" xmlns="http://www.w3.org/2000/svg"><path d="m367.992188 150.019531c0-12.800781-5.304688-25.027343-14.652344-33.773437-9.347656-8.742188-21.902344-13.222656-34.675782-12.371094l-90.078124 6.007812c9.109374 9.367188 13.8125 22.164063 12.933593 35.203126l-9.832031 147.488281c-1.09375 15.714843-10.148438 29.785156-24 37.292969l110.945312 7.402343c12.773438.859375 25.328126-3.609375 34.683594-12.347656 9.355469-8.738281 14.667969-20.964844 14.675782-33.765625v-14.75c.003906-8.398438-2.296876-16.636719-6.65625-23.816406 4.359374-7.179688 6.660156-15.417969 6.65625-23.816406v-16.367188c.003906-8.398438-2.296876-16.636719-6.65625-23.816406 4.359374-7.179688 6.660156-15.417969 6.65625-23.816406zm0 0" fill="#d95354"/><path d="m448.496094 290.582031-1.519532-4.074219c-12.453124-32.839843-43.859374-54.609374-78.984374-54.734374v-16c41.792968.125 79.175781 26.03125 93.96875 65.121093l1.527343 4.070313zm0 0" fill="#58af7a"/><path d="m238.457031 198.972656c-4.417969.113282-8.089843-3.378906-8.203125-7.796875-.113281-4.417969 3.378906-8.089843 7.796875-8.203125l81.527344-4.230468c4.417969-.222657 8.179687 3.179687 8.398437 7.597656.222657 4.417968-3.179687 8.179687-7.597656 8.402344l-81.503906 4.230468zm0 0" fill="#bf494a"/><path d="m311.992188 263.773438h-77.847657c-4.417969 0-8-3.582032-8-8 0-4.417969 3.582031-8 8-8h77.847657c4.417968 0 8 3.582031 8 8 0 4.417968-3.582032 8-8 8zm0 0" fill="#bf494a"/><path d="m195.378906 95.773438h-14.753906c-8.398438-.003907-16.636719 2.296874-23.816406 6.65625-7.179688-4.359376-15.417969-6.660157-23.816406-6.65625h-16.367188c-8.398438-.003907-16.636719 2.296874-23.816406 6.65625-7.179688-4.359376-15.417969-6.660157-23.816406-6.65625h-14.75c-12.800782 0-25.027344 5.304687-33.773438 14.652343-8.746094 9.347657-13.222656 21.902344-12.371094 34.675781l9.832032 147.472657c1.140624 17.148437 11.699218 32.25 27.417968 39.210937 15.71875 6.957032 33.996094 4.625 47.460938-6.058594 8.164062 6.507813 18.296875 10.050782 28.738281 10.046876h6.527344c10.429687.007812 20.554687-3.523438 28.71875-10.015626 13.464843 10.683594 31.746093 13.015626 47.460937 6.058594 15.71875-6.957031 26.277344-22.0625 27.417969-39.210937l9.832031-147.503907c.855469-12.769531-3.625-25.320312-12.363281-34.667968-8.742187-9.347656-20.964844-14.65625-33.761719-14.660156zm0 0" fill="#fcb94e"/><path d="m135.992188 95.773438h-16c.128906-41.792969 26.03125-79.175782 65.121093-93.96875l4.070313-1.527344 5.601562 14.992187-4.070312 1.519531c-32.835938 12.457032-54.597656 43.863282-54.722656 78.984376zm0 0" fill="#58af7a"/><path d="m90.992188 303.773438c-4.417969 0-8-3.582032-8-8v-160c0-4.417969 3.582031-8 8-8 4.417968 0 8 3.582031 8 8v160c0 4.417968-3.582032 8-8 8zm0 0" fill="#dea345"/><path d="m153.992188 303.773438h-.296876c-2.121093-.078126-4.125-.996094-5.570312-2.550782-1.445312-1.558594-2.210938-3.625-2.132812-5.746094l6-163c.234374-4.386718 3.90625-7.796874 8.296874-7.703124 2.121094.078124 4.125.992187 5.570313 2.550781 1.445313 1.554687 2.214844 3.621093 2.132813 5.746093l-6 163c-.160157 4.300782-3.695313 7.707032-8 7.703126zm0 0" fill="#dea345"/><path d="m375.992188 216.109375v-3.703125c-.003907-8.257812-1.898438-16.40625-5.542969-23.816406 3.640625-7.414063 5.539062-15.558594 5.542969-23.816406v-14.753907c.003906-15.011719-6.21875-29.355469-17.183594-39.613281s-25.691406-15.507812-40.671875-14.503906l-86.558594 5.765625c-9.953125-8.917969-22.835937-13.863281-36.199219-13.894531h-14.753906c-8.257812.003906-16.40625 1.898437-23.816406 5.542968-6.386719-3.105468-13.320313-4.921875-20.40625-5.351562 3.078125-32.140625 24.140625-59.746094 54.328125-71.199219l4.070312-1.519531-5.597656-14.992188-4.074219 1.527344c-36.371094 13.777344-61.582031 47.234375-64.800781 85.992188h-3.703125c-8.257812.003906-16.40625 1.898437-23.816406 5.542968-7.410156-3.644531-15.558594-5.539062-23.816406-5.542968h-14.75c-15.015626-.003907-29.359376 6.21875-39.617188 17.183593-10.253906 10.964844-15.507812 25.691407-14.503906 40.671875l9.832031 147.503906c1.269531 19.023438 12.433594 35.984376 29.40625 44.671876s37.261719 7.824218 53.433594-2.273438c8.625 5.375 18.582031 8.230469 28.746093 8.242188h6.542969c10.152344-.019532 20.09375-2.875 28.710938-8.242188 8.625 5.375 18.582031 8.230469 28.746093 8.242188 8.375-.003907 16.636719-1.960938 24.125-5.722657l108.472657 7.203125c1.191406.085938 2.402343.125 3.570312.125 29.964844.027344 54.277344-24.253906 54.285157-54.222656v-14.75c-.003907-8.257812-1.898438-16.40625-5.542969-23.816406 3.105469-6.386719 4.921875-13.320313 5.34375-20.410156 32.140625 3.078124 59.746093 24.140624 71.199219 54.328124l1.519531 4.074219 14.992187-5.601562-1.527344-4.070313c-13.773437-36.371094-47.226562-61.582031-85.984374-64.800781zm-214.207032 103.382813c-2.914062-2.3125-7.039062-2.3125-9.953125 0-6.742187 5.386718-15.121093 8.308593-23.75 8.28125h-6.542969c-8.632812.027343-17.011718-2.894532-23.753906-8.28125-2.914062-2.3125-7.039062-2.3125-9.953125 0-6.742187 5.386718-15.121093 8.308593-23.75 8.28125-20.121093-.046876-36.785156-15.632813-38.167969-35.703126l-9.832031-147.496093c-.707031-10.566407 2.996094-20.949219 10.226563-28.679688 7.234375-7.734375 17.347656-12.121093 27.933594-12.121093h14.75c6.941406.011718 13.75 1.914062 19.6875 5.503906 2.539062 1.527344 5.71875 1.527344 8.257812 0 5.941406-3.589844 12.746094-5.492188 19.6875-5.503906h16.367188c6.941406.011718 13.75 1.914062 19.6875 5.503906 2.539062 1.527344 5.71875 1.527344 8.257812 0 5.941406-3.589844 12.746094-5.492188 19.6875-5.503906h14.753906c10.414063-.03125 20.378906 4.234374 27.550782 11.78125 1.804687 1.894531 3.410156 3.964843 4.800781 6.179687 4.261719 6.804687 6.273437 14.78125 5.75 22.796875l-9.773438 147.539062c-.167969 2.15625-.523437 4.300782-1.058593 6.398438-.136719.566406-.277344 1.128906-.4375 1.6875-.542969 1.898438-1.234376 3.753906-2.066407 5.542969-.253906.539062-.566406 1.042969-.855469 1.601562-.65625 1.242188-1.382812 2.449219-2.175781 3.609375-.558593.796875-1.128906 1.597656-1.753906 2.398438-.621094.800781-1.101563 1.265625-1.671875 1.878906-1.640625 1.808594-3.457031 3.457031-5.414062 4.921875l-.359376.277344c-1.296874.9375-2.648437 1.796875-4.050781 2.570312-13.402343 7.566407-30.0625 6.214844-42.070312-3.417969zm198.207032-154.71875c-.007813 6.941406-1.914063 13.746093-5.503907 19.6875-1.527343 2.539062-1.527343 5.714843 0 8.253906 3.589844 5.941406 5.496094 12.75 5.503907 19.691406v16.367188c-.007813 6.941406-1.914063 13.746093-5.503907 19.6875-1.527343 2.539062-1.527343 5.714843 0 8.253906 3.589844 5.941406 5.496094 12.75 5.503907 19.691406v14.75c0 10.585938-4.386719 20.699219-12.121094 27.933594-7.730469 7.230468-18.113282 10.933594-28.679688 10.226562l-91.269531-6.078125.054687-.097656c1.640626-2.042969 3.128907-4.203125 4.449219-6.464844.101563-.167969.183594-.351562.28125-.519531 1.171875-2.0625 2.210938-4.199219 3.101563-6.398438.105468-.273437.234375-.527343.34375-.800781.859375-2.253906 1.5625-4.5625 2.113281-6.914062.121094-.503907.222656-1.007813.328125-1.519531.527344-2.429688.882812-4.894532 1.0625-7.375l1.9375-29.375h70.398438c4.417968 0 8-3.582032 8-8 0-4.417969-3.582032-8-8-8h-69.304688l3.28125-49.152344 74.441406-3.855469c4.417969-.222656 7.820313-3.984375 7.597656-8.402344-.21875-4.417969-3.980468-7.820312-8.398437-7.597656l-72.535156 3.765625 2.453125-36.917969c.140625-2.234375.140625-4.476562 0-6.710937-.039063-.671875-.109375-1.347656-.175782-2.019532-.160156-1.636718-.390624-3.261718-.695312-4.878906-.117188-.632812-.222656-1.261718-.367188-1.894531-.996093-4.398437-2.53125-8.660156-4.574218-12.679687-.089844-.175782-.144532-.359376-.242188-.535157l75.777344-5.050781c10.5625-.707031 20.945312 2.996094 28.679688 10.230469 7.730468 7.230469 12.117187 17.34375 12.121093 27.929687zm0 0"/><path d="m90.992188 127.773438c-4.417969 0-8 3.582031-8 8v160c0 4.417968 3.582031 8 8 8 4.417968 0 8-3.582032 8-8v-160c0-4.417969-3.582032-8-8-8zm0 0"/><path d="m146.007812 295.472656 5.972657-163 15.988281.585938-5.972656 163zm0 0"/></svg>