<?xml version="1.0" encoding="iso-8859-1"?>
<!-- Generator: Adobe Illustrator 19.0.0, SVG Export Plug-In . SVG Version: 6.00 Build 0)  -->
<svg version="1.1" id="Capa_1" xmlns="http://www.w3.org/2000/svg" xmlns:xlink="http://www.w3.org/1999/xlink" x="0px" y="0px"
	 viewBox="0 0 496 496" style="enable-background:new 0 0 496 496;" xml:space="preserve">
<rect x="8" y="248" style="fill:#F0BC5E;" width="256" height="192"/>
<path d="M231.032,155.72c-4.536-4.536-7.032-10.56-7.032-16.976V112h32V64h-16V40c0-22.056-17.944-40-40-40H72
	C49.944,0,32,17.944,32,40v24H16v48h32v26.744c0,6.416-2.496,12.448-7.032,16.976L11.72,184.968C4.168,192.52,0,202.568,0,213.256
	V464c0,17.648,14.352,32,32,32h208c17.648,0,32-14.352,32-32V213.256c0-10.688-4.168-20.736-11.72-28.288L231.032,155.72z M48,40
	c0-13.232,10.768-24,24-24h128c13.232,0,24,10.768,24,24v24H48V40z M256,464c0,8.824-7.176,16-16,16H32c-8.824,0-16-7.176-16-16
	V213.256c0-6.416,2.496-12.448,7.032-16.976l29.248-29.248c7.552-7.552,11.72-17.6,11.72-28.288V112h112V96H32V80h208v16h-48v16h16
	v26.744c0,10.688,4.168,20.736,11.72,28.288l29.248,29.248c4.536,4.536,7.032,10.56,7.032,16.976V464z"/>
<path d="M440,64c-15.664,0-29.824,6.48-40,16.888V48h-16v64.888C373.824,102.48,359.664,96,344,96h-56v8
	c0,29.712,23.28,54.024,52.544,55.824C337.728,164.592,336,170.072,336,176c0,9.608,4.336,18.128,11.056,24
	c-6.72,5.872-11.056,14.392-11.056,24s4.336,18.128,11.056,24c-6.72,5.872-11.056,14.392-11.056,24s4.336,18.128,11.056,24
	c-6.72,5.872-11.056,14.392-11.056,24s4.336,18.128,11.056,24c-6.72,5.872-11.056,14.392-11.056,24s4.336,18.128,11.056,24
	c-6.72,5.872-11.056,14.392-11.056,24c0,16.496,12.584,29.952,28.632,31.656C361.76,452.456,360,458.008,360,464
	c0,17.648,14.352,32,32,32s32-14.352,32-32c0-5.992-1.76-11.544-4.632-16.344C435.416,445.952,448,432.496,448,416
	c0-9.608-4.336-18.128-11.056-24c6.72-5.872,11.056-14.392,11.056-24s-4.336-18.128-11.056-24c6.72-5.872,11.056-14.392,11.056-24
	s-4.336-18.128-11.056-24c6.72-5.872,11.056-14.392,11.056-24s-4.336-18.128-11.056-24c6.72-5.872,11.056-14.392,11.056-24
	s-4.336-18.128-11.056-24c6.72-5.872,11.056-14.392,11.056-24c0-17.648-14.352-32-32-32c-5.856,0-11.272,1.696-16,4.448V128h40
	c30.872,0,56-25.128,56-56v-8H440z M304.808,112H344c19.32,0,35.48,13.768,39.192,32H344C324.68,144,308.52,130.232,304.808,112z
	 M352,176c0-8.824,7.176-16,16-16s16,7.176,16,16s-7.176,16-16,16S352,184.824,352,176z M352,224c0-8.824,7.176-16,16-16
	s16,7.176,16,16s-7.176,16-16,16S352,232.824,352,224z M352,272c0-8.824,7.176-16,16-16s16,7.176,16,16s-7.176,16-16,16
	S352,280.824,352,272z M352,320c0-8.824,7.176-16,16-16s16,7.176,16,16s-7.176,16-16,16S352,328.824,352,320z M352,368
	c0-8.824,7.176-16,16-16s16,7.176,16,16s-7.176,16-16,16S352,376.824,352,368z M395.056,392c-1.088,0.952-2.104,1.968-3.056,3.056
	c-0.952-1.088-1.968-2.104-3.056-3.056c1.088-0.952,2.104-1.968,3.056-3.056C392.952,390.032,393.968,391.048,395.056,392z M352,416
	c0-8.824,7.176-16,16-16s16,7.176,16,16s-7.176,16-16,16S352,424.824,352,416z M392,480c-8.824,0-16-7.176-16-16s7.176-16,16-16
	s16,7.176,16,16S400.824,480,392,480z M432,416c0,8.824-7.176,16-16,16s-16-7.176-16-16s7.176-16,16-16S432,407.176,432,416z
	 M432,368c0,8.824-7.176,16-16,16s-16-7.176-16-16s7.176-16,16-16S432,359.176,432,368z M432,320c0,8.824-7.176,16-16,16
	s-16-7.176-16-16s7.176-16,16-16S432,311.176,432,320z M432,272c0,8.824-7.176,16-16,16s-16-7.176-16-16s7.176-16,16-16
	S432,263.176,432,272z M432,224c0,8.824-7.176,16-16,16s-16-7.176-16-16s7.176-16,16-16S432,215.176,432,224z M416,160
	c8.824,0,16,7.176,16,16s-7.176,16-16,16s-16-7.176-16-16S407.176,160,416,160z M440,112h-39.192c3.72-18.232,19.872-32,39.192-32
	h39.192C475.48,98.232,459.32,112,440,112z"/>
<path d="M136,272c-39.704,0-72,32.296-72,72s32.296,72,72,72s72-32.296,72-72S175.704,272,136,272z M136,400
	c-30.872,0-56-25.128-56-56s25.128-56,56-56s56,25.128,56,56S166.872,400,136,400z"/>
<rect x="128" y="32" width="16" height="16"/>
<rect x="160" y="32" width="16" height="16"/>
<rect x="192" y="32" width="16" height="16"/>
<rect x="96" y="32" width="16" height="16"/>
<rect x="64" y="32" width="16" height="16"/>
<g>
</g>
<g>
</g>
<g>
</g>
<g>
</g>
<g>
</g>
<g>
</g>
<g>
</g>
<g>
</g>
<g>
</g>
<g>
</g>
<g>
</g>
<g>
</g>
<g>
</g>
<g>
</g>
<g>
</g>
</svg>
