<svg height="480pt" viewBox="0 0 480 480.00135" width="480pt" xmlns="http://www.w3.org/2000/svg"><g fill="#8a4325"><path d="m36 440c-15.464844 0-28-12.535156-28-28 0-15.460938 12.535156-28 28-28s28 12.539062 28 28c0 15.464844-12.535156 28-28 28zm0-40c-6.625 0-12 5.375-12 12 0 6.628906 5.375 12 12 12 6.628906 0 12-5.371094 12-12 0-6.625-5.371094-12-12-12zm0 0"/><path d="m452 408c-15.464844 0-28-12.535156-28-28 0-15.460938 12.535156-28 28-28s28 12.539062 28 28c0 15.464844-12.535156 28-28 28zm0-40c-6.625 0-12 5.375-12 12 0 6.628906 5.375 12 12 12 6.628906 0 12-5.371094 12-12 0-6.625-5.371094-12-12-12zm0 0"/><path d="m59.65625 440h-19.65625v-16h19.65625c44.484375.003906 88.714844-6.703125 131.199219-19.894531l101.457031-31.488281c44.039062-13.675782 89.886719-20.625 136-20.617188h19.6875v16h-19.65625c-44.484375-.003906-88.714844 6.707031-131.199219 19.898438l-101.496093 31.488281c-44.035157 13.671875-89.882813 20.621093-135.992188 20.613281zm0 0"/><path d="m28 480c-15.464844 0-28-12.535156-28-28 0-15.460938 12.535156-28 28-28s28 12.539062 28 28c0 15.464844-12.535156 28-28 28zm0-40c-6.625 0-12 5.375-12 12 0 6.628906 5.375 12 12 12 6.628906 0 12-5.371094 12-12 0-6.625-5.371094-12-12-12zm0 0"/><path d="m444 464c-15.464844 0-28-12.535156-28-28 0-15.460938 12.535156-28 28-28s28 12.539062 28 28c0 15.464844-12.535156 28-28 28zm0-40c-6.625 0-12 5.375-12 12 0 6.628906 5.375 12 12 12 6.628906 0 12-5.371094 12-12 0-6.625-5.371094-12-12-12zm0 0"/><path d="m57.992188 480h-25.992188v-16h25.992188c45.902343-.003906 91.65625-5.269531 136.359374-15.695312l103.65625-24.183594c45.898438-10.703125 92.871094-16.113282 140-16.121094h1.992188v16h-1.992188c-45.902343.007812-91.65625 5.273438-136.359374 15.699219l-103.65625 24.183593c-45.898438 10.703126-92.871094 16.113282-140 16.117188zm0 0"/></g><path d="m235.847656 174.914062-39.917968 45.261719c-41.953126 47.558594-113.535157 54.582031-163.929688 16.082031l3.199219-6.496093c20.34375-41.894531 73.882812-66.558594 119.335937-66.761719zm0 0" fill="#ffbc49"/><path d="m226.441406 180.273438 41.128906 44.167968c43.207032 46.417969 43.167969 118.34375-.089843 164.710938l-6.152344-3.773438c-45.367187-27.847656-67.160156-82.109375-53.65625-133.601562zm0 0" fill="#ffbc49"/><path d="m235.847656 175.203125 58.863282-13.320313c61.84375-13.988281 123.976562 22.21875 142.296874 82.917969l-6.398437 3.425781c-46.882813 25.164063-104.710937 16.691407-142.402344-20.863281zm0 0" fill="#ffbc49"/><path d="m248.359375 104c15.726563-57.160156 70.609375-94.460938 129.546875-88.046875l.65625 7.199219c4.878906 53.007812-25.511719 102.957031-74.824219 122.992187l-68.496093 27.816407zm0 0" fill="#ffbc49"/><path d="m135.871094 128c-29.859375-32.285156-39.816406-78.25-25.992188-120l7.203125.855469c40 4.800781 74.742188 36.96875 92.949219 71.144531zm0 0" fill="#ffbc49"/><path d="m260 132-12.246094 21.433594-6.496094 23.824218-23.824218 6.496094-21.433594 12.246094-21.429688-12.246094-23.824218-6.496094-6.496094-23.824218-12.25-21.433594 12.25-21.429688 6.496094-23.824218 23.824218-6.496094 21.429688-12.25 21.433594 12.25 23.824218 6.496094 6.496094 23.824218zm0 0" fill="#ffdb70"/><path d="m398.265625 239.808594-15.066406-3.34375c-38.402344-8.539063-75.8125-21.046875-111.628907-37.320313l-38.921874-16.886719 6.398437-14.679687 39.050781 16.941406c34.84375 15.839844 71.238282 28.015625 108.597656 36.328125l15.058594 3.34375zm0 0" fill="#ffdb70"/><path d="m248.648438 355.152344c-16.308594-37.929688-24.699219-78.792969-24.648438-120.078125v-59.074219h16v59.074219c-.046875 39.117187 7.902344 77.835937 23.351562 113.773437zm0 0" fill="#ffdb70"/><path d="m69 230.25-10-12.496094c27.328125-21.804687 61.242188-33.703125 96.199219-33.753906l76.488281-2.78125.578125 16-76.800781 2.789062c-31.414063 0-61.898438 10.660157-86.464844 30.242188zm0 0" fill="#ffdb70"/><path d="m244.34375 173.402344-13.6875-8.296875 36.738281-60.601563c20.316407-30.527344 48.246094-55.230468 81.03125-71.664062l7.152344 14.320312c-30.203125 15.117188-55.941406 37.839844-74.6875 65.929688zm0 0" fill="#ffdb70"/><path d="m163.199219 94.402344-5.597657-4.21875c-18.53125-13.914063-31.71875-33.769532-37.359374-56.246094l15.519531-3.871094c4.753906 18.90625 15.851562 35.613282 31.4375 47.328125l5.601562 4.207031zm0 0" fill="#ffdb70"/><path d="m241.929688 169.722656-13.511719-15.847656c-10.710938-12.625-14.898438-29.535156-11.320313-45.699219l-15.609375-3.503906c-2.917969 13.171875-1.90625 26.90625 2.914063 39.503906-14.167969-6.5625-29.761719-9.445312-45.335938-8.375l1.117188 15.960938c21.011718-1.445313 41.695312 5.804687 57.210937 20.046875l12.429688 11.464844 10.839843-11.769532zm0 0" fill="#ffbc49"/><path d="m0 452c0 15.464844 12.535156 28 28 28 1.34375-.035156 2.679688-.171875 4-.40625v.40625h25.992188c47.128906-.003906 94.101562-5.414062 140-16.117188l103.65625-24.183593c38.394531-8.945313 77.574218-14.085938 116.976562-15.355469-1.714844 3.648438-2.609375 7.628906-2.625 11.65625 0 15.464844 12.535156 28 28 28s28-12.535156 28-28c0-15.460938-12.535156-28-28-28-1.339844.039062-2.675781.175781-4 .410156v-.410156h-1.992188c-47.128906.007812-94.101562 5.417969-140 16.121094l-103.65625 24.183594c-44.703124 10.425781-90.457031 15.691406-136.359374 15.695312h-4.800782c3.746094-7.5625 3.746094-16.4375 0-24h6.464844c46.113281.011719 91.960938-6.941406 136-20.613281l71.6875-22.25h.152344c1.488281-.054688 2.929687-.523438 4.160156-1.359375l25.457031-7.902344c41.996094-13.039062 85.703125-19.734375 129.679688-19.875-1.820313 3.742188-2.773438 7.84375-2.792969 12 0 15.464844 12.535156 28 28 28s28-12.535156 28-28c0-15.460938-12.535156-28-28-28-1.339844.039062-2.675781.175781-4 .410156v-.410156h-19.65625c-46.113281-.007812-91.960938 6.941406-136 20.617188l-3.199219.992187c25.199219-41.804687 24.753907-94.226563-1.144531-135.601563 40.203125 36.214844 98.863281 43.148438 146.402344 17.304688l6.398437-3.421875c3.351563-1.804687 4.964844-5.71875 3.863281-9.359375-17.652343-57.800781-73.019531-95.632812-133.28125-91.082031 50.164063-22.414063 80.410157-74.359375 75.144532-129.046875l-.664063-7.199219c-.355469-3.78125-3.320312-6.789063-7.09375-7.203125-54.792969-4.964844-107.09375 23.890625-132.113281 72.890625-.929688-.875-2.058594-1.515625-3.289062-1.867187l-22.847657-6.222657-1.40625-.800781c-20.949219-38.007812-58.253906-64.234375-101.113281-71.078125l-7.199219-.8632812c-3.78125-.4570318-7.355469 1.8164062-8.550781 5.4296872-13.871094 42.015625-5.21875 88.207031 22.917969 122.351563l-.109375.160156c-1.40625 2.460938-1.40625 5.476562 0 7.9375l10.335937 18.085938c-46.117187 3.21875-87.03125 30.742187-107.394531 72.242187l-3.199219 6.535156c-1.664062 3.421875-.6875 7.546875 2.335938 9.855469 53.785156 40.851562 129.960937 33.382812 174.785156-17.144531l6.238281-7.070313-8.230468 31.351563c-13.652344 51.125 5.585937 105.378906 48.390624 136.488281l-57.421874 17.824219c-42 13.042969-85.710938 19.75-129.691407 19.894531 1.820313-3.738281 2.777344-7.839844 2.792969-12 .054688-12.136719-7.714844-22.925781-19.242188-26.71875-11.527343-3.796875-24.191406.265625-31.355468 10.0625-7.164063 9.796875-7.207032 23.09375-.097656 32.929688-8.246094 5.070312-13.2812505 14.046874-13.304688 23.726562zm456-16c0 6.628906-5.371094 12-12 12-6.625 0-12-5.371094-12-12 0-6.625 5.375-12 12-12 6.628906 0 12 5.375 12 12zm8-56c0 6.628906-5.371094 12-12 12-6.625 0-12-5.371094-12-12 0-6.625 5.375-12 12-12 6.628906 0 12 5.375 12 12zm-36.703125-139.023438-.449219.242188c-43.746094 23.738281-97.90625 15.808594-133.007812-19.480469l-22.992188-22.929687.730469.335937c35.8125 16.273438 73.222656 28.78125 111.621094 37.320313l15.058593 3.34375 3.472657-15.617188-15.058594-3.34375c-37.316406-8.300781-73.671875-20.457031-108.480469-36.269531l-15.796875-7.199219 34.078125-7.707031c55.308594-12.320313 111.207032 18.148437 130.824219 71.304687zm-56.746094-217.597656v.488282c4.789063 49.546874-23.660156 96.316406-69.863281 114.847656l-45.734375 18.574218.207031-.800781 11.785156-20.488281c.378907-.710938.648438-1.476562.800782-2.269531l13.101562-20.609375c18.761719-28.09375 44.515625-50.8125 74.730469-65.917969l-7.152344-14.320313c-32.734375 16.398438-60.632812 41.042969-80.9375 71.511719l-7.414062 11.605469-4.875-8.519531-.796875-3.054688c16.394531-49.832031 63.722656-82.847656 116.148437-81.03125zm-135.804687 69.886719 5.253906 19.40625c.1875.65625.457031 1.28125.800781 1.867187l9.992188 17.460938-9.992188 17.464844c-.34375.585937-.613281 1.210937-.800781 1.863281l-3.335938 12.257813-8.28125-9.710938c-10.707031-12.625-14.894531-29.535156-11.316406-45.699219l-15.609375-3.503906c-2.917969 13.171875-1.90625 26.90625 2.910157 39.503906-14.164063-6.5625-29.757813-9.445312-45.335938-8.375l1.121094 15.960938c21.011718-1.445313 41.695312 5.804687 57.207031 20.046875l3.066406 2.824218-5.097656 1.367188c-.648437.191406-1.273437.460938-1.855469.800781l-17.472656 9.984375-17.472656-9.984375c-.582032-.339843-1.207032-.609375-1.855469-.800781l-19.414063-5.292969-5.257812-19.378906c-.183594-.652344-.453125-1.277344-.800781-1.863281l-9.992188-17.464844 9.992188-17.460938c.347656-.585937.617187-1.210937.800781-1.867187l5.289062-19.40625 19.382813-5.265625c.648437-.1875 1.273437-.457031 1.855469-.796875l17.472656-9.984375 17.472656 9.984375c.582032.339844 1.207032.609375 1.855469.796875zm-119.144532-76.519531.496094.054687c30.03125 4.675781 57.230469 20.417969 76.246094 44.128907-.101562.046874-.214844.070312-.3125.128906l-20.550781 11.742187-7.421875 2.023438c-13.953125-11.53125-23.863282-27.210938-28.296875-44.757813l-15.519531 3.871094c4.398437 17.457031 13.378906 33.421875 26.015624 46.246094-1.5625 1.058594-2.699218 2.640625-3.199218 4.457031l-6.257813 22.839844-3.054687 5.335937c-20.316406-27.609375-26.992188-62.953125-18.144532-96.070312zm74.328126 198.144531c-37.605469 42.386719-100.769532 50.425781-147.792969 18.808594l.214843-.441407c18.472657-37.628906 56.1875-62.007812 98.082032-63.402343l2.589844 9.507812c.605468 2.167969 2.105468 3.980469 4.121093 4.980469-32.140625 1.691406-62.957031 13.371094-88.144531 33.410156l10 12.496094c24.488281-19.542969 54.875-30.203125 86.199219-30.25h31.648437l5.160156 2.945312c2.460938 1.40625 5.476563 1.40625 7.9375 0l.992188-.566406zm25.480468 38.925781 8.589844-32.75v14.007813c-.050781 41.285156 8.339844 82.148437 24.648438 120.078125l14.703124-6.304688c-15.449218-35.9375-23.398437-74.65625-23.351562-113.773437v-28.496094l21.71875 23.320313c38.484375 41.585937 40.285156 105.222656 4.21875 148.917968l-.425781-.261718c-42.542969-25.84375-62.945313-76.644532-50.101563-124.738282zm-199.410156 198.183594c0-6.625 5.375-12 12-12 6.628906 0 12 5.375 12 12 0 6.628906-5.371094 12-12 12-6.625 0-12-5.371094-12-12zm20-52c6.628906 0 12 5.375 12 12 0 6.628906-5.371094 12-12 12-6.625 0-12-5.371094-12-12 0-6.625 5.375-12 12-12zm0 0"/></svg>